<?xml version="1.0" encoding="UTF-8"?><svg xmlns="http://www.w3.org/2000/svg" viewBox="0 0 265.25 102.68"><defs><style>.d{fill:#038a96;}.e{fill:#f78d2d;}</style></defs><g id="a"/><g id="b"><g id="c"><g><path class="e" d="M73.53,60.84c-5.29,0-9.58-4.29-9.58-9.58s4.29-9.58,9.58-9.58,9.58,4.29,9.58,9.58-4.29,9.58-9.58,9.58M58.82,.54V15.46c9.46,1.96,17.58,7.57,22.84,15.29-2.52-1-5.26-1.56-8.13-1.56-12.18,0-22.06,9.87-22.06,22.06s9.87,22.06,22.06,22.06c2.93,0,5.72-.58,8.28-1.61-5.25,7.84-13.43,13.54-22.98,15.52v14.92c24.81-3.62,43.87-24.98,43.87-50.8S83.64,4.16,58.82,.54"/><path class="d" d="M16.56,62.86c8.65,4.32,15.35,11.97,18.43,21.27-8.65-4.32-15.35-11.97-18.43-21.27M35.07,18.51c-3.05,9.42-9.82,17.17-18.57,21.52,3.05-9.42,9.82-17.17,18.57-21.52m-8.76,32.91c13.07-7.73,22.41-21.08,24.71-36.72,.36-2.45,.55-4.95,.55-7.5s-.18-4.85-.51-7.21c-5.06,.03-9.93,.79-14.54,2.18C17.7,7.85,3.46,24,.55,43.84c-.36,2.45-.55,4.95-.55,7.5s.2,5.17,.57,7.68c2.96,19.77,17.2,35.84,35.95,41.49,4.61,1.39,9.49,2.15,14.55,2.18,.32-2.3,.49-4.65,.49-7.03,0-2.61-.2-5.17-.58-7.68-2.34-15.57-11.66-28.85-24.68-36.55"/><polygon class="d" points="117.96 93.07 117.96 85.25 116.47 85.25 116.47 84.03 120.76 84.03 120.76 85.25 119.26 85.25 119.26 93.07 117.96 93.07"/><path class="d" d="M121.26,86.63h1.3v6.44h-1.3v-6.44Zm0-2.61h1.3v1.3h-1.3v-1.3Z"/><path class="d" d="M124.8,88.59v.74h1.27v-.74c0-.49-.21-.74-.64-.74s-.64,.25-.64,.74m-.85-2.53l.99-1.45h.97l1,1.45h-.8l-.68-.96-.69,.96h-.79Zm3.42,4.28h-2.57v.88c0,.42,.21,.63,.64,.63,.38,0,.59-.22,.64-.65h1.3c0,.57-.18,1.03-.54,1.4-.36,.36-.82,.55-1.39,.55-.79,0-1.35-.31-1.69-.93-.16-.3-.24-.73-.24-1.31v-2.12c0-.58,.08-1.01,.24-1.31,.34-.62,.9-.93,1.69-.93,.58,0,1.05,.19,1.4,.57,.35,.38,.53,.86,.53,1.44v1.78Z"/><path class="d" d="M128.32,93.07v-6.44h1.3v.62c.31-.47,.72-.7,1.23-.7,.37,0,.68,.12,.92,.36,.28,.28,.42,.69,.42,1.22v4.94h-1.3v-4.46c0-.51-.21-.76-.64-.76s-.65,.3-.65,.89v4.33h-1.3Z"/><path class="d" d="M138.21,91.09v-2.36c0-.58-.21-.88-.64-.88-.19,0-.35,.07-.47,.22-.12,.15-.18,.34-.18,.58v2.5c0,.2,.06,.37,.18,.5,.12,.13,.28,.2,.46,.2,.42,0,.64-.25,.64-.76m-2.58,4.59v-9.05h1.3v.58c.21-.24,.38-.39,.5-.47,.2-.13,.45-.19,.74-.19,.53,0,.91,.2,1.13,.61,.14,.26,.22,.73,.22,1.39v2.45c0,.82-.07,1.34-.21,1.56-.25,.39-.64,.58-1.17,.58s-.91-.22-1.21-.66v3.19h-1.3Z"/><path class="d" d="M140.57,93.07v-9.05h1.3v3.23c.31-.47,.72-.7,1.23-.7,.37,0,.68,.12,.92,.36,.28,.28,.42,.69,.42,1.22v4.94h-1.3v-4.46c0-.51-.21-.76-.64-.76s-.65,.3-.65,.89v4.33h-1.3Z"/><path class="d" d="M146.69,88.59v2.53c0,.49,.21,.74,.64,.74s.64-.24,.64-.74v-2.53c0-.49-.21-.74-.64-.74s-.64,.25-.64,.74m-1.3,2.32v-2.12c0-.58,.08-1.01,.24-1.31,.34-.62,.9-.93,1.69-.93s1.35,.31,1.69,.93c.16,.3,.24,.73,.24,1.31v2.12c0,.58-.08,1.01-.24,1.31-.34,.62-.9,.93-1.69,.93s-1.35-.31-1.69-.93c-.16-.3-.24-.73-.24-1.31"/><path class="d" d="M150.21,93.07v-6.44h1.3v.62c.31-.47,.72-.7,1.23-.7,.37,0,.68,.12,.92,.36,.28,.28,.42,.69,.42,1.22v4.94h-1.3v-4.46c0-.51-.21-.76-.64-.76s-.65,.3-.65,.89v4.33h-1.3Z"/><path class="d" d="M156.45,88.73v2.36c0,.51,.21,.76,.64,.76,.19,0,.34-.07,.46-.2,.12-.13,.18-.3,.18-.5v-2.5c0-.24-.06-.43-.18-.58-.12-.15-.28-.22-.47-.22-.42,0-.64,.29-.64,.88m-1.3,5.09h1.3c0,.17,.07,.32,.19,.45,.12,.13,.28,.19,.49,.19,.4,0,.6-.23,.6-.7v-1.27h-.02c-.3,.44-.7,.66-1.21,.66-.53,0-.91-.2-1.13-.61-.14-.26-.22-.73-.22-1.39v-2.45c0-.82,.07-1.34,.2-1.56,.25-.39,.63-.58,1.16-.58,.29,0,.53,.06,.72,.19,.12,.08,.28,.23,.49,.47v-.58h1.3v7.23c0,.5-.15,.92-.46,1.27-.36,.42-.85,.62-1.49,.62-.47,0-.86-.14-1.19-.41-.42-.34-.66-.85-.74-1.53"/><path class="d" d="M163.76,88.61v2.36c0,.58,.21,.88,.64,.88s.65-.27,.65-.8v-2.5c0-.2-.06-.36-.18-.5-.12-.13-.27-.2-.47-.2-.42,0-.64,.25-.64,.76m1.28-2.67h-1.21v-.65h1.21v-1.27h1.3v1.27h.53v.65h-.53v7.13h-1.3v-.58c-.21,.24-.38,.39-.5,.47-.2,.13-.45,.19-.74,.19-.53,0-.91-.2-1.13-.61-.14-.26-.21-.72-.21-1.38v-2.45c0-.82,.07-1.34,.2-1.56,.25-.39,.63-.58,1.16-.58s.9,.22,1.19,.66h.03v-1.27Z"/><path class="d" d="M169.91,83.32v-.41c0-.25,.09-.46,.27-.64,.18-.18,.39-.27,.64-.27,.29,0,.51,.11,.67,.34,.14,.14,.2,.38,.2,.71,0,.29-.03,.47-.09,.55l-.52,.7c-.07,.09-.1,.19-.1,.29v.23l-.2,.23-.2-.23v-.31c0-.23,.02-.38,.08-.47l.37-.61c.06-.08,.09-.16,.09-.27v-.32c0-.2-.1-.3-.29-.3-.21,0-.32,.1-.32,.3v.46h-.58Zm-1.32,5.27v2.53c0,.49,.21,.74,.64,.74s.64-.24,.64-.74v-2.53c0-.49-.21-.74-.64-.74s-.64,.25-.64,.74m-.86-2.53l1-1.45h.97l1,1.45h-.82l-.68-.98-.67,.98h-.8Zm-.43,4.85v-2.12c0-.58,.08-1.01,.24-1.31,.34-.62,.9-.93,1.69-.93s1.35,.31,1.69,.93c.16,.3,.24,.73,.24,1.31v2.12c0,.58-.08,1.01-.24,1.31-.34,.62-.9,.93-1.69,.93s-1.35-.31-1.69-.93c-.16-.3-.24-.73-.24-1.31"/><path class="d" d="M172.11,86.63h1.3v6.44h-1.3v-6.44Zm0-2.61h1.3v1.3h-1.3v-1.3Z"/><path class="d" d="M176.83,93.07v-6.44h1.3v.62c.31-.47,.71-.7,1.23-.7,.46,0,.85,.22,1.16,.65,.39-.43,.84-.65,1.35-.65,.38,0,.69,.12,.96,.36,.31,.28,.46,.69,.46,1.22v4.94h-1.3v-4.46c0-.51-.21-.76-.64-.76s-.65,.3-.65,.89v4.33h-1.3v-4.46c0-.51-.21-.76-.64-.76s-.65,.3-.65,.89v4.33h-1.3Z"/><path class="d" d="M186.16,85.58l.85-1.7,1.3-.13-1.84,1.7-.3,.13Zm-.62,3.01v2.53c0,.49,.21,.74,.64,.74s.64-.25,.64-.74v-2.53c0-.49-.21-.74-.64-.74s-.64,.25-.64,.74m1.75-1.72l.48-.2c.06-.04,.13-.1,.22-.18,.04-.08,.06-.15,.06-.23,0-.15-.08-.3-.23-.43,.5,.2,.75,.47,.75,.81,0,.17-.08,.33-.24,.5-.05,.05-.2,.17-.46,.35,.15,.3,.23,.74,.23,1.3v2.12c0,.58-.08,1.01-.24,1.31-.34,.62-.9,.93-1.69,.93s-1.35-.31-1.69-.93c-.16-.3-.24-.73-.24-1.31v-2.12c0-.58,.08-1.01,.24-1.31,.34-.62,.9-.93,1.69-.93,.43,0,.8,.11,1.12,.32"/><path class="d" d="M189.06,86.63h1.3v6.44h-1.3v-6.44Zm0-2.61h1.3v1.3h-1.3v-1.3Z"/><rect class="d" x="192.62" y="88.91" width="3.83" height="1.3"/><polygon class="d" points="198.73 93.07 198.73 84.03 200.02 84.03 200.02 89.44 201.6 86.63 202.91 86.63 201.37 89.25 203.23 93.07 201.81 93.07 200.65 90.29 200.02 91.27 200.02 93.07 198.73 93.07"/><path class="d" d="M203.67,86.63h1.3v6.44h-1.3v-6.44Zm0-2.61h1.3v1.3h-1.3v-1.3Z"/><path class="d" d="M209.32,85.08l.85-1.7,1.3-.13-1.84,1.7-.3,.13Zm-2.11,3.51v.74h1.27v-.74c0-.49-.21-.74-.64-.74s-.63,.25-.63,.74m-.85-2.53l.99-1.45h.97l1,1.45h-.8l-.68-.96-.69,.96h-.79Zm3.42,4.28h-2.57v.88c0,.42,.21,.63,.63,.63,.38,0,.59-.22,.64-.65h1.3c0,.57-.18,1.03-.54,1.4-.36,.36-.82,.55-1.39,.55-.79,0-1.35-.31-1.69-.93-.16-.3-.24-.73-.24-1.31v-2.12c0-.58,.08-1.01,.24-1.31,.34-.62,.9-.93,1.69-.93,.58,0,1.05,.19,1.4,.57,.35,.38,.53,.86,.53,1.44v1.78Z"/><path class="d" d="M210.74,93.07v-6.44h1.3v.62c.31-.47,.72-.7,1.23-.7,.37,0,.68,.12,.92,.36,.28,.28,.42,.69,.42,1.22v4.94h-1.3v-4.46c0-.51-.21-.76-.64-.76s-.65,.3-.65,.89v4.33h-1.3Z"/><path class="d" d="M218.05,86.63v-1.96h1.3v1.96h.8v1.02h-.8v3.57c0,.28,.06,.46,.19,.55,.09,.06,.3,.09,.61,.09v1.22h-.53c-.53,0-.94-.16-1.22-.49-.23-.28-.34-.62-.34-1.02v-3.91h-.65v-1.02h.65Z"/><path class="d" d="M221.83,93.7h1.17v1.17h-1.17v-1.17Zm1.27-2.52v-.88c-.14-.03-.25-.04-.36-.04-.68,0-1.02,.31-1.02,.92,0,.55,.22,.83,.67,.83s.7-.28,.7-.83m0,1.89v-.66c-.2,.26-.37,.45-.53,.55-.2,.13-.44,.19-.73,.19-.94,0-1.41-.57-1.41-1.71,0-.78,.15-1.34,.45-1.68,.3-.34,.83-.51,1.6-.51,.07,0,.17,0,.31,.02,.14,.01,.24,.02,.31,.02v-.67c0-.51-.22-.76-.65-.76s-.67,.22-.74,.65h-1.27c.04-.58,.24-1.05,.6-1.41,.36-.36,.83-.53,1.41-.53s1.08,.19,1.43,.56c.35,.37,.52,.87,.52,1.48v4.48h-1.3Z"/><path class="d" d="M226.52,88.59v2.53c0,.49,.21,.74,.64,.74s.63-.24,.63-.74v-2.53c0-.49-.21-.74-.63-.74s-.64,.25-.64,.74m-1.3,2.32v-2.12c0-.58,.08-1.01,.24-1.31,.34-.62,.9-.93,1.69-.93s1.35,.31,1.69,.93c.16,.3,.24,.73,.24,1.31v2.12c0,.58-.08,1.01-.24,1.31-.34,.62-.9,.93-1.69,.93s-1.35-.31-1.69-.93c-.16-.3-.24-.73-.24-1.31"/><path class="d" d="M232.41,86.63v-1.96h1.3v1.96h.8v1.02h-.8v3.57c0,.28,.06,.46,.19,.55,.09,.06,.3,.09,.61,.09v1.22h-.53c-.53,0-.94-.16-1.22-.49-.23-.28-.34-.62-.34-1.02v-3.91h-.65v-1.02h.65Z"/><path class="d" d="M238.87,87.41v5.67h-1.3v-.62c-.31,.47-.72,.7-1.23,.7-.45,0-.79-.16-1.03-.47-.21-.28-.32-.65-.32-1.1v-4.94h1.3v4.46c0,.51,.21,.76,.64,.76s.65-.3,.65-.89v-4.33h1.28c.05-.03,.12-.09,.2-.18,.03-.07,.05-.14,.05-.2,0-.14-.07-.28-.2-.39,.45,.18,.67,.42,.67,.74,0,.16-.09,.32-.25,.47-.02,.02-.18,.13-.46,.34"/><path class="d" d="M241.12,88.59v2.53c0,.49,.21,.74,.64,.74s.64-.25,.64-.74v-2.53c0-.49-.21-.74-.64-.74s-.64,.25-.64,.74m1.75-1.72l.48-.2c.06-.04,.13-.1,.22-.18,.04-.08,.06-.15,.06-.23,0-.15-.08-.3-.23-.43,.5,.2,.75,.47,.75,.81,0,.17-.08,.33-.24,.5-.05,.05-.2,.17-.46,.35,.15,.3,.23,.74,.23,1.3v2.12c0,.58-.08,1.01-.24,1.31-.34,.62-.9,.93-1.69,.93s-1.35-.31-1.69-.93c-.16-.3-.24-.73-.24-1.31v-2.12c0-.58,.08-1.01,.24-1.31,.34-.62,.9-.93,1.69-.93,.43,0,.8,.11,1.12,.32"/><path class="d" d="M244.64,93.07v-6.44h1.3v.62c.31-.47,.72-.7,1.23-.7,.37,0,.68,.12,.92,.36,.28,.28,.42,.69,.42,1.22v4.94h-1.3v-4.46c0-.51-.21-.76-.64-.76s-.65,.3-.65,.89v4.33h-1.3Z"/><path class="d" d="M250.88,88.73v2.36c0,.51,.21,.76,.64,.76,.19,0,.34-.07,.46-.2,.12-.13,.18-.3,.18-.5v-2.5c0-.24-.06-.43-.18-.58-.12-.15-.27-.22-.47-.22-.42,0-.64,.29-.64,.88m-1.3,5.09h1.3c0,.17,.07,.32,.19,.45,.12,.13,.28,.19,.49,.19,.4,0,.6-.23,.6-.7v-1.27h-.03c-.3,.44-.7,.66-1.21,.66-.53,0-.91-.2-1.13-.61-.14-.26-.22-.73-.22-1.39v-2.45c0-.82,.07-1.34,.2-1.56,.25-.39,.63-.58,1.16-.58,.29,0,.53,.06,.72,.19,.12,.08,.28,.23,.5,.47v-.58h1.3v7.23c0,.5-.15,.92-.46,1.27-.36,.42-.85,.62-1.49,.62-.47,0-.86-.14-1.19-.41-.42-.34-.66-.85-.74-1.53"/><path class="d" d="M256.81,91.35v-7.32h1.3v7.23c0,.24,.04,.4,.13,.5,.09,.09,.26,.15,.5,.18v1.22c-.65,0-1.12-.11-1.41-.34-.35-.27-.52-.76-.52-1.46"/><path class="d" d="M261.71,91.18v-.88c-.14-.03-.25-.04-.36-.04-.68,0-1.02,.31-1.02,.92,0,.55,.22,.83,.67,.83s.7-.28,.7-.83m0,1.89v-.66c-.2,.26-.37,.45-.53,.55-.2,.13-.44,.19-.73,.19-.94,0-1.41-.57-1.41-1.71,0-.77,.15-1.33,.44-1.67,.29-.34,.83-.51,1.61-.51,.07,0,.16,0,.28,.01,.15,.02,.27,.03,.34,.03v-.67c0-.51-.22-.76-.65-.76s-.67,.22-.74,.65h-1.27c.04-.57,.24-1.04,.6-1.4,.36-.36,.83-.54,1.41-.54s1.03,.17,1.38,.51c.38,.36,.58,.87,.58,1.53v4.48h-1.3Z"/><path class="d" d="M263.95,86.63h1.3v6.44h-1.3v-6.44Zm0-2.61h1.3v1.3h-1.3v-1.3Z"/><rect class="e" x="144.62" y="59.15" width="13.09" height="5.92"/><rect class="e" x="188.79" y="44.45" width="6.19" height="29.4"/><path class="e" d="M213.02,62.59c0-1.97-.35-3.34-1.04-4.11-.67-.81-1.91-1.21-3.73-1.21l-2.99,.04v10.97h2.57c1.89,0,3.24-.45,4.04-1.35,.39-.4,.69-.95,.89-1.67,.17-.7,.26-1.59,.26-2.68m6.19,.46c0,1.3-.18,2.62-.53,3.97-.22,.72-.44,1.3-.65,1.75-.26,.49-.58,1.01-.98,1.55-.84,1.22-1.88,2.11-3.13,2.68-1.29,.51-2.89,.77-4.81,.77h-3.84v7.4h-5.95v-29.36h10.14c3.05,0,5.44,.99,7.19,2.96,1.71,1.97,2.57,4.74,2.57,8.29"/><path class="e" d="M240.67,73.84h-6.01v-13.11c0-1.3-.19-2.14-.58-2.54-.25-.22-.54-.39-.86-.49-.35-.1-.84-.16-1.46-.16l-3.55,.04v16.25h-5.93v-29.4h5.93v7.35h3.99c2.98,0,5.14,.63,6.45,1.89,1.32,1.26,1.98,3.57,1.98,6.44l.04,13.71Z"/><path class="e" d="M258.39,68.63v-3.27h-5.48c-1.09,0-1.8,.11-2.13,.34-.33,.23-.49,.71-.49,1.43,0,.54,.11,.93,.35,1.18,.12,.1,.34,.18,.66,.24,.32,.05,.73,.08,1.23,.08h5.86Zm6.12,5.19h-14.02c-1.94,0-3.48-.56-4.62-1.69-1.15-1.1-1.73-2.71-1.73-4.82,0-2.53,.64-4.35,1.9-5.45,1.27-1.1,3.32-1.65,6.16-1.65h6.19c0-1.05-.29-1.8-.86-2.26-.58-.42-1.68-.63-3.3-.63h-8.83v-5.52h10.74c2.73,0,4.81,.68,6.23,2.05,1.42,1.37,2.13,3.67,2.13,6.44v13.54Z"/><path class="d" d="M133.56,67.11c-.47,.45-1.27,.68-2.39,.68h-7.61v-5.65h7.61c1.12,0,1.91,.22,2.39,.65,.47,.49,.71,1.21,.71,2.18s-.24,1.68-.71,2.14m-10.24-16.52h7.78c1.14,0,1.95,.21,2.42,.63,.47,.46,.71,1.16,.71,2.11s-.26,1.64-.78,2.09c-.45,.46-1.23,.69-2.35,.69h-7.54v-3.46l-2.17-2.05h1.93Zm17.15,11.54c-.28-.7-2.81-3.04-2.81-3.04,0,0,2.07-1.85,2.6-2.95,.52-1.1,.8-2.35,.8-3.78s-.27-2.67-.82-3.8c-.55-1.13-1.33-2.04-2.35-2.74-.33-.26-.72-.48-1.17-.65-.47-.17-.99-.31-1.57-.41-1.14-.21-2.53-.32-4.17-.32h-15.97l2.17,2.05v27.33h14.73c1.54,0,2.89-.17,4.05-.52,1.16-.35,2.11-.83,2.85-1.45,1.52-1.39,2.27-3.48,2.27-6.28,0-1.34-.35-2.76-.63-3.46"/><path class="e" d="M175.24,61.38l-6.48,4.55,4.28-9.38,2.2,4.83Zm-2.26-16.93l-14.71,29.38h6.68l12.71-7.12,3.25,7.12h6.88l-14.81-29.38Z"/></g></g></g></svg>