<svg xmlns="http://www.w3.org/2000/svg" xmlns:xlink="http://www.w3.org/1999/xlink" width="28.431" height="32" viewBox="0 0 28.431 32"><defs><clipPath id="a"><rect width="28.431" height="32" fill="#f78d2d"/></clipPath></defs><g clip-path="url(#a)"><path d="M24.631,13.044c1.509,3.588,4.384,5.54,6.3,5.54,1.884,0,4.525-1.887,6.055-5.428a16.507,16.507,0,0,0,.916-3.033,12.077,12.077,0,0,0,.388-3.34C38.293,3.1,35,0,30.933,0s-7.357,3.1-7.357,6.783a16.049,16.049,0,0,0,.171,2.5,14.633,14.633,0,0,0,.884,3.766" transform="translate(-16.718)" fill="#f78d2d"/><path d="M27.227,71.319c-1.471-1.573-5.607-1.178-7.651-2.259-.909,1.7-.921,4.495-2.43,4.495a1.3,1.3,0,0,1-.2-.016c-2.274-.341-1.137-6.14-2.729-6.14s-.455,5.8-2.728,6.14a1.3,1.3,0,0,1-.2.016c-1.509,0-1.521-2.794-2.43-4.495-2.043,1.081-6.179.687-7.645,2.259C.414,72.171,0,77.447,0,79.791H28.431c0-2.344-.411-7.621-1.2-8.473" transform="translate(0 -47.791)" fill="#f78d2d"/></g></svg>