<svg xmlns="http://www.w3.org/2000/svg" xmlns:xlink="http://www.w3.org/1999/xlink" width="44.72" height="32" viewBox="0 0 44.72 32"><defs><clipPath id="a"><rect width="44.72" height="32" fill="#f78d2d"/></clipPath></defs><g clip-path="url(#a)"><path d="M30.944,38.266a6.943,6.943,0,1,0,6.942,6.942,6.943,6.943,0,0,0-6.942-6.942m0,11.918a4.976,4.976,0,1,1,4.976-4.976,4.976,4.976,0,0,1-4.976,4.976" transform="translate(-17.017 -27.134)" fill="#f78d2d"/><path d="M25.769,24.6l.959-2.092-1.371-2.374-2.224-.21q-.354-.4-.742-.76l-.216-2.3L19.8,15.5l-2.026.927c-.337-.11-.682-.208-1.03-.289l-1.332-1.876H12.666l-1.292,1.818c-.348.073-.7.162-1.036.263l-2.093-.956-2.374,1.37-.21,2.225c-.262.236-.518.483-.757.743l-2.3.215L1.235,22.313l.926,2.026c-.109.337-.2.682-.288,1.03L0,26.7v2.743l1.816,1.291c.072.349.161.7.264,1.036l-.958,2.093L2.5,36.239l2.224.21q.355.393.74.757l.219,2.3,2.374,1.373,2.027-.926c.337.109.682.207,1.03.288l1.333,1.873h2.746l1.289-1.816c.351-.075.7-.161,1.036-.265l2.092.959,2.374-1.373.21-2.224q.4-.354.76-.741l2.3-.218,1.37-2.377-.927-2.024c.11-.339.207-.681.288-1.029l1.876-1.333V26.923l-1.818-1.289q-.109-.527-.265-1.037M13.926,37.051a8.867,8.867,0,1,1,8.867-8.867,8.866,8.866,0,0,1-8.867,8.867" transform="translate(0 -10.11)" fill="#f78d2d"/><path d="M109.438,16.413a4.746,4.746,0,1,0,4.748,4.746,4.745,4.745,0,0,0-4.748-4.746m0,8.148a3.4,3.4,0,1,1,3.4-3.4,3.4,3.4,0,0,1-3.4,3.4" transform="translate(-74.238 -11.638)" fill="#f78d2d"/><path d="M107.322,10.533V8.66l-1.24-.884c-.051-.238-.113-.475-.181-.708l.653-1.43-.936-1.624L104.1,3.871c-.161-.181-.33-.354-.506-.518l-.15-1.569L101.817.847l-1.384.632c-.231-.074-.467-.141-.7-.2L98.817,0H96.944L96.06,1.244c-.242.049-.477.112-.708.182L93.922.769,92.3,1.707l-.144,1.519c-.181.162-.354.331-.521.51l-1.568.146L89.13,5.506l.633,1.387c-.077.231-.141.467-.2.7l-1.281.912v1.873l1.243.884a7.119,7.119,0,0,0,.181.708l-.656,1.43.938,1.623,1.52.144c.161.178.331.354.506.518l.149,1.569,1.624.937,1.384-.633q.345.113.705.2l.909,1.278h1.877l.883-1.241a7.107,7.107,0,0,0,.7-.181l1.431.657,1.623-.938.144-1.52c.181-.161.354-.33.521-.509l1.569-.147.938-1.623-.636-1.384a7.288,7.288,0,0,0,.2-.7ZM97.8,15.582a6.061,6.061,0,1,1,6.063-6.061A6.064,6.064,0,0,1,97.8,15.582" transform="translate(-62.601)" fill="#f78d2d"/></g></svg>