<svg xmlns="http://www.w3.org/2000/svg" xmlns:xlink="http://www.w3.org/1999/xlink" width="16.938" height="32" viewBox="0 0 16.938 32"><defs><clipPath id="a"><rect width="16.938" height="32" fill="#f78d2d"/></clipPath></defs><g clip-path="url(#a)"><path d="M5.6,0C8.241,10.661.56,14.07.02,22.154-.308,27.077,3.334,32,8.232,32s8.7-3.868,8.7-10.55C16.937,14.652,9.711,4.4,5.6,0m6.873,11.475q.819,1.829,1.607,3.673c-.56.153-.846.233-1.426.4-.431-1.514-.913-3.01-1.4-4.5.486.175.731.262,1.224.433m-1.644-.586c.476,1.59.918,3.185,1.318,4.8-.588.167-.886.253-1.495.431a39.918,39.918,0,0,0-1.022-5.677c.476.181.715.271,1.2.448m1.842,10.538q-1.217.921-2.466,1.795a19.367,19.367,0,0,0,.559-5.86c.657-.269.978-.4,1.6-.652a19.4,19.4,0,0,1,.3,4.717m.779-.6a14.961,14.961,0,0,0-.546-4.336c.614-.248.913-.368,1.494-.6a18.832,18.832,0,0,1,1.086,3.28c-.752.643-1.158.974-2.034,1.658" transform="translate(0)" fill="#f78d2d"/></g></svg>