<svg xmlns="http://www.w3.org/2000/svg" xmlns:xlink="http://www.w3.org/1999/xlink" width="61.865" height="61.857" viewBox="0 0 61.865 61.857"><defs><clipPath id="a"><rect width="61.865" height="61.857" fill="#f78d2d"/></clipPath></defs><g clip-path="url(#a)"><path d="M6.61,59.57a7.855,7.855,0,0,0,11.083,0L30.423,46.838a1.567,1.567,0,1,0-2.216-2.217L15.475,57.353a4.721,4.721,0,0,1-6.649,0L4.508,53.035a4.706,4.706,0,0,1,0-6.649L46.389,4.5a4.721,4.721,0,0,1,6.65,0l4.318,4.318a4.707,4.707,0,0,1,0,6.649L35.377,37.452a4.721,4.721,0,0,1-6.65,0l-.836-.836a4.707,4.707,0,0,1,0-6.649L46.345,11.514A1.567,1.567,0,1,0,44.128,9.3L25.675,27.751a7.845,7.845,0,0,0,0,11.082l.836.836a7.854,7.854,0,0,0,11.082,0L59.574,17.688a7.845,7.845,0,0,0,0-11.081L55.255,2.287a7.857,7.857,0,0,0-11.083,0L2.291,44.169a7.847,7.847,0,0,0,0,11.083Zm9.5-.679a6.3,6.3,0,0,1-7.41.371,6.3,6.3,0,0,0,7.41-.371M30.264,40.132a6.224,6.224,0,0,1-2.646-1.572,6.224,6.224,0,0,0,2.646,1.572" transform="translate(0)" fill="#f78d2d"/></g></svg>