<svg xmlns="http://www.w3.org/2000/svg" xmlns:xlink="http://www.w3.org/1999/xlink" width="61.983" height="61.857" viewBox="0 0 61.983 61.857"><defs><clipPath id="a"><rect width="61.983" height="61.857" transform="translate(0)" fill="#f78d2d"/></clipPath></defs><g clip-path="url(#a)"><path d="M30.758,66.476l-.245-.5.278-.487,3.882-6.834A7.038,7.038,0,1,0,40.5,64.63l-6.667,3.788-.446.253-.476-.19a4.043,4.043,0,0,1-2.152-2.005" transform="translate(-11.638 -25.628)" fill="#f78d2d"/><path d="M56.378,60.192l1.666.543a12.906,12.906,0,0,0-1.55-2.955l-1.846,1.847Z" transform="translate(-23.917 -25.288)" fill="#f78d2d"/><path d="M28.915,47.9a12.983,12.983,0,1,0,12.347,8.983l-1.63.926-.9.51a10.16,10.16,0,1,1-7.089-7.211l.467-.819.965-1.7a12.91,12.91,0,0,0-4.162-.689" transform="translate(-6.975 -20.965)" fill="#f78d2d"/><path d="M48.277,52.889,50.16,51a12.963,12.963,0,0,0-2.98-1.6l.551,1.754Z" transform="translate(-20.649 -21.62)" fill="#f78d2d"/><path d="M41.049,53.906A19.14,19.14,0,1,1,33.881,39L35.9,36.989a22,22,0,1,0,3.073,3.1l-2.015,2.015a19.016,19.016,0,0,1,4.1,11.8" transform="translate(0 -13.99)" fill="#f78d2d"/><path d="M70.307.277a6.786,6.786,0,0,0-1.447,2.991L67.9,8.134,66.55,9.483l.962-4.867a3.111,3.111,0,0,0,.066-.584c0-.6-.29-.736-.754-.272A6.8,6.8,0,0,0,65.377,6.75l-.962,4.867-1.348,1.348L64.029,8.1a3.1,3.1,0,0,0,.066-.583c0-.6-.29-.737-.753-.273a6.8,6.8,0,0,0-1.448,2.991L60.932,15.1,42.764,33.268l-1.072-3.416L35.709,40.384a3,3,0,0,0,1.586,1.478l10.462-5.944-3.384-1.1L62.511,16.677l4.867-.961a6.821,6.821,0,0,0,2.992-1.448.76.76,0,0,0,.276-.47c0-.263-.408-.36-1.132-.218l-4.868.963L65.993,13.2l4.866-.962a6.794,6.794,0,0,0,2.992-1.448.76.76,0,0,0,.277-.468c0-.264-.409-.362-1.134-.218l-4.868.962,1.348-1.348,4.868-.962A6.793,6.793,0,0,0,77.333,7.3a.76.76,0,0,0,.278-.469c0-.264-.409-.362-1.133-.218L69.773,7.94l-.1-.1,1.324-6.7A3.105,3.105,0,0,0,71.06.549c0-.6-.29-.737-.753-.273" transform="translate(-15.628 0)" fill="#f78d2d"/></g></svg>