<svg xmlns="http://www.w3.org/2000/svg" xmlns:xlink="http://www.w3.org/1999/xlink" width="68.844" height="61.857" viewBox="0 0 68.844 61.857"><defs><clipPath id="a"><rect width="68.844" height="61.857" fill="#f78d2d"/></clipPath></defs><g clip-path="url(#a)"><path d="M39.911,10.923h1.651c.81,0,1.494-.368,1.494-.8v-4.5a1,1,0,0,1,.984-.984H58.431a1,1,0,0,1,.984.984v4.545c0,.4.7.755,1.493.755h1.652c.8,0,1.494-.352,1.494-.755V5.623A5.628,5.628,0,0,0,58.431,0H44.039a5.629,5.629,0,0,0-5.622,5.623v4.423c0,.476.685.877,1.494.877" transform="translate(-16.814)" fill="#f78d2d"/><path d="M56,72.5h4.549A1.5,1.5,0,0,0,62.048,71V69.3a1.5,1.5,0,0,0-1.494-1.493H56A1.5,1.5,0,0,0,54.51,69.3V71A1.5,1.5,0,0,0,56,72.5" transform="translate(-23.857 -29.678)" fill="#f78d2d"/><path d="M2.614,0h2.31A2.614,2.614,0,0,1,7.537,2.614v0A2.614,2.614,0,0,1,4.923,5.229H2.616A2.616,2.616,0,0,1,0,2.614v0A2.614,2.614,0,0,1,2.614,0Z" transform="translate(30.653 45.397)" fill="#f78d2d"/><path d="M66.053,70.649c-.4.15-.757.276-1.086.387A88.678,88.678,0,0,1,41.6,75.6v2.9A4.608,4.608,0,0,1,37,83.1H33.964a4.608,4.608,0,0,1-4.6-4.6V75.6A87.835,87.835,0,0,1,4.323,70.437c-.223-.064-.629-.221-1.608-.614l-.126-.05-.163-.065V88.586a3.772,3.772,0,0,0,3.767,3.769H64.774a3.772,3.772,0,0,0,3.767-3.769v-18.9c-.263.106-.546.219-.841.336Z" transform="translate(-1.062 -30.498)" fill="#f78d2d"/><path d="M65.191,24.478H3.654A3.658,3.658,0,0,0,0,28.133V44.465a1.526,1.526,0,0,0,.735,1.129c.011,0,.674.3,1.753.725a85.735,85.735,0,0,0,25.823,5.638V49.211c0-1.821,2.747-3.062,4.592-3.062H35.94c2.143,0,4.589,1.406,4.54,3.544v2.263a86.514,86.514,0,0,0,22.578-4.416c2.221-.765,5.027-1.96,5.055-1.972a1.476,1.476,0,0,0,.73-1.1V28.133a3.659,3.659,0,0,0-3.654-3.655" transform="translate(0 -10.713)" fill="#f78d2d"/></g></svg>