<svg xmlns="http://www.w3.org/2000/svg" xmlns:xlink="http://www.w3.org/1999/xlink" width="54.958" height="61.857" viewBox="0 0 54.958 61.857"><defs><clipPath id="a"><rect width="54.958" height="61.857" fill="#f78d2d"/></clipPath></defs><g clip-path="url(#a)"><path d="M25.616,25.214c2.917,6.935,8.475,10.709,12.182,10.709,3.642,0,8.746-3.647,11.7-10.493a31.908,31.908,0,0,0,1.771-5.862,23.346,23.346,0,0,0,.75-6.457C52.024,6,45.655,0,37.8,0S23.576,6,23.576,13.111a31.024,31.024,0,0,0,.331,4.823,28.286,28.286,0,0,0,1.709,7.28" transform="translate(-10.318)" fill="#f78d2d"/><path d="M52.631,74.977c-2.844-3.04-10.838-2.278-14.79-4.367-1.757,3.287-1.78,8.688-4.7,8.688a2.5,2.5,0,0,1-.39-.031c-4.4-.659-2.2-11.869-5.275-11.869s-.879,11.21-5.274,11.869a2.513,2.513,0,0,1-.391.031c-2.916,0-2.94-5.4-4.7-8.688C13.168,72.7,5.174,71.937,2.34,74.977.8,76.624,0,86.823,0,91.355H54.958c0-4.532-.795-14.731-2.327-16.378" transform="translate(0 -29.498)" fill="#f78d2d"/></g></svg>