<svg xmlns="http://www.w3.org/2000/svg" xmlns:xlink="http://www.w3.org/1999/xlink" width="84.215" height="61.857" viewBox="0 0 84.215 61.857"><defs><clipPath id="a"><rect width="84.215" height="61.857" fill="#f78d2d"/></clipPath></defs><g clip-path="url(#a)"><path d="M31.691,49.54a1.072,1.072,0,0,0,1.016.733c12.855,0,26.148,0,39.334.033h0a1.07,1.07,0,0,0,0-2.141c-12.925-.033-25.951-.033-38.566-.033-1.5-4.546-2.828-8.965-4.23-13.633-.739-2.46-1.5-5-2.29-7.547-.635-2.288-1.286-4.4-2.175-7.067C23.042,14.117,19.539,2.811,19.5,2.7a1.073,1.073,0,0,0-1.023-.754H16.4A2.391,2.391,0,0,0,14.008,0H2.425A2.368,2.368,0,0,0,0,2.3V3.74a2.369,2.369,0,0,0,2.425,2.3H14.008A2.392,2.392,0,0,0,16.4,4.086h1.289c.816,2.637,3.57,11.541,5.048,16.433a.23.23,0,0,1,.01.028c.88,2.642,1.524,4.733,2.152,6.994,0,.01.006.019.008.029.784,2.541,1.549,5.086,2.289,7.547,1.416,4.715,2.882,9.592,4.493,14.424" transform="translate(0 0)" fill="#f78d2d"/><path d="M101.31,21.277H47.027a2.37,2.37,0,0,0-2.426,2.3v1.437a2.369,2.369,0,0,0,2.426,2.3H47.8l8.148,27.705a1.069,1.069,0,0,0,1.027.769H91.362a1.07,1.07,0,0,0,1.027-.769l8.148-27.705h.773a2.367,2.367,0,0,0,2.425-2.3V23.579a2.368,2.368,0,0,0-2.425-2.3" transform="translate(-19.52 -9.312)" fill="#f78d2d"/><path d="M53.8,90.177a5.573,5.573,0,1,0,5.574,5.573A5.58,5.58,0,0,0,53.8,90.177" transform="translate(-21.105 -39.467)" fill="#f78d2d"/><path d="M124.822,90.177A5.573,5.573,0,1,0,130.4,95.75a5.579,5.579,0,0,0-5.574-5.573" transform="translate(-52.191 -39.467)" fill="#f78d2d"/></g></svg>