<svg xmlns="http://www.w3.org/2000/svg" xmlns:xlink="http://www.w3.org/1999/xlink" width="32" height="31.699" viewBox="0 0 32 31.699"><defs><clipPath id="a"><rect width="32" height="31.699" fill="#f78d2d"/></clipPath></defs><g clip-path="url(#a)"><path d="M37.882,95.123H28.291A4.287,4.287,0,0,0,24,99.41H42.169a4.287,4.287,0,0,0-4.287-4.287" transform="translate(-17.087 -67.712)" fill="#f78d2d"/><rect width="5.586" height="3.248" transform="translate(13.207 23.254)" fill="#f78d2d"/><path d="M31.19,0H.81A.812.812,0,0,0,0,.811v20.6a.812.812,0,0,0,.81.81H31.19a.812.812,0,0,0,.81-.81V.811A.812.812,0,0,0,31.19,0m-2.3,18.287a.82.82,0,0,1-.826.81H3.935a.82.82,0,0,1-.826-.81V3.928a.821.821,0,0,1,.826-.81h24.13a.821.821,0,0,1,.826.81Z" transform="translate(0 -0.001)" fill="#f78d2d"/></g></svg>