<svg xmlns="http://www.w3.org/2000/svg" xmlns:xlink="http://www.w3.org/1999/xlink" width="37.676" height="32" viewBox="0 0 37.676 32"><defs><clipPath id="a"><rect width="37.676" height="32" fill="#f78d2d"/></clipPath></defs><g clip-path="url(#a)"><path d="M20.625,62.85c-.06.093-.119.188-.181.278a8.478,8.478,0,0,1-.611.816c-.1.013-.213.023-.319.035-.187.021-.372.043-.565.063.1-.182.191-.379.284-.579.122-.266.241-.541.352-.834.019-.054.041-.109.061-.166.347-.036.683-.08,1.018-.126.026-.352.055-.731.089-1.166q-.347.042-.7.077c.018-.065.037-.132.055-.2q-.479-.01-.968-.04c-.025.108-.05.219-.077.325-.278.018-.563.029-.846.043-.2.01-.4.025-.609.032.033-.173.067-.35.1-.529q-.45-.054-.9-.124c-.022.188-.043.371-.065.551-.005.04-.01.082-.015.122h-.007c-.164,0-.33,0-.493,0l-.457,0h-.045c-.034-.284-.069-.582-.1-.885-.326-.066-.651-.139-.976-.218.064.374.13.737.2,1.081-.111,0-.218-.013-.33-.019-.323-.016-.647-.033-.963-.056l-.161-.01c-.109-.427-.209-.879-.3-1.35-.005-.027-.011-.056-.016-.082q-.559-.174-1.115-.374c.028.125.056.249.086.37.111.466.23.916.358,1.345-.124-.013-.247-.03-.37-.044q-.535-.063-1.053-.138l-.125-.018c-.193-.431-.374-.889-.543-1.367-.109-.307-.211-.624-.308-.947q-.679-.312-1.338-.666c.017.06.035.116.053.176.123.419.254.828.4,1.223q.259.717.558,1.377c-.152-.029-.3-.061-.447-.092-.282-.059-.559-.121-.827-.188a17.633,17.633,0,0,1-1.251-2.677c-.045-.119-.092-.236-.135-.358.06.021.124.04.185.06q.6.2,1.246.38l.08.023a21.149,21.149,0,0,1-3.258-2.187l-.1-.045c-.309-.136-.607-.276-.886-.422-.12-.061-.234-.122-.346-.185-.066-.241-.126-.486-.182-.732a17.2,17.2,0,0,1-1.489-1.741c.034.3.073.6.122.893q.051.314.113.622l-.079-.067a6.356,6.356,0,0,1-.973-.977,15.244,15.244,0,0,1-.2-2.016A15.7,15.7,0,0,1,.106,48.742a15.892,15.892,0,0,0,.117,4.49q.094.556.227,1.1.159.658.369,1.289a15.707,15.707,0,0,0,2.162,4.24c.047.067.1.127.148.193a15.745,15.745,0,0,0,5.968,4.9,16.834,16.834,0,0,0,2.869,1,16,16,0,0,0,2.281.472c.167.022.335.042.5.059.252.025.506.043.761.058.223.011.446.019.671.022.064,0,.127,0,.191,0,.169,0,.337-.011.505-.017l.126,0A15.891,15.891,0,0,0,24.047,64.6a15.775,15.775,0,0,0,3.207-2.264,15.617,15.617,0,0,0,1.972-2.165,56.172,56.172,0,0,1-8.755,4.953c.06-.921.1-1.583.154-2.277M3.733,58.691c-.092-.061-.184-.123-.267-.183a15.122,15.122,0,0,1-1.78-4.2,8.143,8.143,0,0,0,.908.87c.054.045.105.089.161.133.095.352.2.7.317,1.036.143.424.305.835.477,1.237.211.493.436.973.685,1.428-.182-.105-.346-.211-.5-.316M5.5,61.108c-.331-.342-.652-.694-.951-1.066.148.09.3.175.467.261.2.3.408.578.621.851.124.16.248.32.376.471-.177-.166-.344-.342-.513-.517m.971-1.121c-.16-.056-.317-.113-.468-.17a16.8,16.8,0,0,1-1.715-3.5c.348.2.724.379,1.114.556.073.034.143.069.218.1.054.17.114.336.173.5.147.421.3.834.474,1.232.214.5.444.982.691,1.439-.166-.052-.328-.106-.486-.161M8.85,63.074l-.03-.01A13.352,13.352,0,0,1,7.385,61.65c-.065-.073-.128-.152-.192-.227s-.15-.174-.224-.266l.1.033c.212.076.429.151.652.221.084.128.171.252.258.375a13,13,0,0,0,1.069,1.331l.025.027c-.077-.023-.148-.047-.219-.07m1.97.536c-.081-.071-.161-.15-.241-.226a11.352,11.352,0,0,1-1.354-1.549c.151.036.31.067.464.1.2.045.4.092.6.132.025.046.052.088.077.132a12.1,12.1,0,0,0,.83,1.265c.041.054.081.11.122.161.027.034.051.065.078.1-.2-.037-.39-.074-.575-.115m1.925.326-.152-.018a9.04,9.04,0,0,1-.59-.789c-.182-.266-.358-.551-.528-.85.267.04.545.072.82.107.1.012.195.027.294.039l.209.027c.022.058.044.12.066.178.139.368.291.707.448,1.03.059.122.116.249.178.363-.255-.026-.5-.056-.744-.086m1.29,1.314c.093.01.186.02.281.027a4.092,4.092,0,0,0,.295.322,5.051,5.051,0,0,1-.576-.349m.283-1.16a12.433,12.433,0,0,1-.592-1.551c.445.034.9.061,1.361.076q.134.6.262,1.1c.031.127.063.25.094.367l.016.062h-.024c-.2-.006-.4-.019-.594-.03-.175-.009-.354-.014-.525-.026m1.067,1.594c-.063-.059-.129-.125-.2-.2-.044-.046-.086-.1-.129-.154.25.015.5.022.76.028.046.131.088.25.129.353-.188-.005-.378-.015-.563-.027m.838-.317v-.007h0Zm.152-1.208h-.2c-.02,0-.04,0-.06,0h-.036c-.058-.446-.127-.957-.2-1.525.114,0,.232,0,.346,0s.235,0,.353,0c-.049.381-.1.733-.139,1.058l-.061.466m.886,1.325a2.341,2.341,0,0,1-.217.217c-.18.008-.36.013-.543.013.039-.1.081-.22.127-.354.258,0,.509-.014.76-.026-.042.053-.086.1-.127.15m.577.115a4.013,4.013,0,0,0,.29-.314c.093-.01.185-.02.278-.027a5.476,5.476,0,0,1-.568.342m.287-1.493c-.215.013-.437.019-.657.028-.161.006-.319.015-.483.02.043-.157.086-.324.129-.5.08-.321.162-.666.244-1.038q.69-.022,1.361-.073a12.787,12.787,0,0,1-.594,1.559" transform="translate(0 -34.563)" fill="#f78d2d"/><path d="M32.7,17.62a15.548,15.548,0,0,0,.082-1.607A15.95,15.95,0,0,0,29.8,6.728a15.7,15.7,0,0,0-3.873-3.8A16.035,16.035,0,0,0,11.726.789a17.285,17.285,0,0,0-2.3.845A15.4,15.4,0,0,0,7.422,2.762a2.548,2.548,0,0,0-.509.295,1.293,1.293,0,0,0-.271.255,15.921,15.921,0,0,0-2.2,2.012,15.611,15.611,0,0,0-1.131,1.4A15.128,15.128,0,0,0,2.174,8.57c-.06-.141-.115-.286-.173-.43A20.243,20.243,0,0,1,.782,3.478,20.853,20.853,0,0,0,.491,8.039c.6,12.008,12.639,17.453,21.685,17.372-.129,1.628-.185,2.443-.292,4.072a56.406,56.406,0,0,0,14.971-9.919c.386-.352.77-.71,1.152-1.076a38.066,38.066,0,0,1-5.31-.868M30.94,11.66a15.161,15.161,0,0,1,.575,3.051c.015.168.033.335.041.505a4.619,4.619,0,0,1-.911.92c0-.041,0-.082,0-.124a17.923,17.923,0,0,0-.36-3.612,4.143,4.143,0,0,0,.518-.552c.048-.063.093-.125.135-.188M29.306,8a15.252,15.252,0,0,1,1.449,3.081c-.025.034-.049.071-.076.108s-.057.063-.083.094a3.224,3.224,0,0,1-.46.444A17.339,17.339,0,0,0,28.964,8.4c.033-.033.061-.067.093-.1A2.906,2.906,0,0,0,29.306,8M27.148,9.59c.317-.154.611-.312.882-.478.021.047.039.1.059.144a16.862,16.862,0,0,1,1,3.144c-.04.022-.086.042-.127.063-.319.166-.665.327-1.042.481a20.273,20.273,0,0,0-.77-3.354m-.639-4.948a15.277,15.277,0,0,1,2.383,2.723c.043.063.087.127.131.193a1.835,1.835,0,0,1-.286.283c-.013.011-.023.021-.036.031-.054-.1-.11-.2-.165-.3-.067-.123-.133-.25-.2-.369A15.3,15.3,0,0,0,26.5,4.66Zm-.737.744a16.1,16.1,0,0,1,1.722,2.631c.077.147.158.29.232.441-.1.046-.2.092-.3.137-.172.076-.35.15-.537.221A18.134,18.134,0,0,0,25.43,5.761l-.012-.022c-.02-.033-.038-.068-.058-.1.141-.081.28-.166.412-.253M24.26,9.047A21.612,21.612,0,0,0,23.4,6.416q.53-.157,1.011-.344c.079.138.154.282.231.425a18.179,18.179,0,0,1,1.175,2.686c-.086.026-.178.052-.266.078-.344.1-.7.2-1.08.293l-.074.019c-.042-.178-.09-.352-.135-.526m.472,2.188c-.039-.228-.079-.456-.123-.68.524-.156,1.021-.323,1.481-.5.051.176.1.356.145.536a20.815,20.815,0,0,1,.535,2.775l-.044.013c-.364.118-.749.227-1.145.333-.177.047-.351.1-.534.141-.065-.894-.172-1.767-.315-2.614M23.5,3.155a12.824,12.824,0,0,1,1.754,1.619,3.137,3.137,0,0,1-.353.157,12.9,12.9,0,0,0-1.543-1.858c-.035-.034-.068-.071-.1-.1.082.058.163.125.245.186m-2.4-.89c.265.195.534.412.8.653a11.6,11.6,0,0,1,2.013,2.343l-.248.065c-.1.025-.195.05-.295.073-.124.03-.248.059-.377.087q-.328-.692-.7-1.306l-.033-.057a11.665,11.665,0,0,0-.8-1.162c-.173-.229-.353-.443-.533-.641.054-.017.109-.034.165-.054m-.106,5.56c-.058-.292-.118-.579-.182-.859.549-.081,1.077-.175,1.581-.29q.131.351.251.719a23.681,23.681,0,0,1,.65,2.421l-.183.033c-.357.068-.725.131-1.1.189-.212.032-.422.067-.64.095q-.157-1.2-.376-2.308m-.927-5.3a8.833,8.833,0,0,1,.714.933A12.336,12.336,0,0,1,21.5,4.666c.169.32.333.654.487,1.007-.162.026-.33.049-.5.072-.311.044-.627.084-.953.118-.188-.682-.393-1.321-.617-1.905a12.966,12.966,0,0,0-.584-1.318c.246-.031.489-.07.73-.115M18.291,7.213c.511-.026,1.011-.068,1.5-.119.056.3.107.607.157.92q.17,1.077.294,2.254l-.1.007c-.361.036-.731.062-1.1.087-.119.008-.233.021-.353.027-.076-.762-.163-1.491-.257-2.188-.046-.337-.093-.669-.142-.988m.5,4.362c.531-.037,1.05-.088,1.557-.148.083,1.02.139,2.082.163,3.176-.365.035-.743.06-1.12.086-.148.01-.289.025-.439.033-.016-.744-.053-1.463-.1-2.17-.02-.328-.039-.659-.065-.977m.319-7.339c.16.528.312,1.1.449,1.715-.131.01-.269.014-.4.022-.307.019-.614.038-.93.051l-.133.007c-.074-.427-.152-.832-.229-1.219-.152-.759-.307-1.438-.456-2.021.39-.012.775-.031,1.155-.066.12.274.235.575.345.893.069.2.136.4.2.618m-2.5,7.414c.345,0,.687,0,1.025-.017.056,1.006.1,2.054.117,3.133-.368.009-.739.01-1.113.007h-.066c-.411,0-.821-.01-1.226-.022.013-.689.037-1.359.065-2.019.017-.371.032-.743.052-1.1.378.012.76.022,1.145.022m-1.07-1.22q.076-1.087.17-2.09c.034-.371.069-.737.106-1.088.2.007.39.009.588.012.3,0,.591-.005.881-.015.035.335.068.681.1,1.033q.1,1.032.175,2.156H17.5c-.291.006-.583.011-.88.011l-.214,0c-.287,0-.574-.006-.856-.016M18.839,1.4h-.014c-.09,0-.178.014-.269.019-.023-.029-.045-.054-.068-.082a4.279,4.279,0,0,0-.319-.352,5.626,5.626,0,0,1,.67.414M17.345.863a1.974,1.974,0,0,1,.246.241c.032.034.063.074.1.113.062.074.124.153.185.241-.273.012-.551.019-.831.024-.04-.126-.078-.241-.114-.346s-.072-.2-.1-.287c.175,0,.348.007.523.015m-.791.36c.01.08.022.171.032.261h-.061c.012-.09.022-.181.029-.261m.022,1.586.181,0c.042.319.087.666.135,1.037.085.661.178,1.4.271,2.212-.116,0-.231,0-.347,0l-.4,0c-.156,0-.309,0-.462-.007h0v0c.144-1.266.287-2.361.4-3.245l.222,0M15.519,1.1l.019-.02a2.414,2.414,0,0,1,.207-.2c.18-.012.361-.022.541-.027-.027.072-.056.155-.087.241-.04.116-.084.243-.13.387-.28-.007-.556-.014-.831-.024a3.73,3.73,0,0,1,.281-.354m-.791.006c.072-.042.144-.085.214-.12-.037.035-.073.076-.109.114-.093.1-.184.2-.275.317-.093-.007-.188-.012-.281-.02.156-.111.305-.205.452-.291m-.606,2.736c.134-.408.276-.783.425-1.122.378.034.762.054,1.152.068-.085.335-.173.7-.261,1.1-.142.641-.286,1.356-.423,2.136H15c-.289-.01-.573-.024-.855-.041-.2-.012-.4-.024-.589-.038.136-.612.284-1.185.446-1.713.04-.134.081-.263.123-.391m-1.03,7.595c.4.048.81.09,1.226.12-.078,1.006-.137,2.056-.162,3.14-.352-.021-.694-.048-1.039-.076-.172-.013-.35-.021-.519-.037.016-.679.048-1.341.086-1.994.024-.4.047-.8.079-1.182,0,0,0-.008,0-.011.109.014.219.025.329.038m-.221-1.192q.109-1.04.257-2c.059-.393.122-.779.191-1.15.488.048.992.088,1.5.114-.152.977-.287,2.039-.4,3.164-.326-.019-.639-.051-.956-.08-.2-.017-.4-.029-.6-.049m-.536-6.789a8.46,8.46,0,0,1,.721-.94c.239.046.482.085.725.117A13.066,13.066,0,0,0,13.2,3.958c-.223.584-.429,1.22-.614,1.9-.247-.025-.49-.053-.727-.084s-.488-.066-.724-.1A13.74,13.74,0,0,1,12.218,3.64c.04-.06.077-.123.117-.182M8.06,13.9c-.329-.076-.646-.158-.955-.242-.264-.072-.524-.147-.772-.226.084-.705.2-1.391.351-2.059q.1-.47.228-.926c.038-.141.074-.285.115-.424q.34.13.7.254c.252.086.511.168.778.248A27.739,27.739,0,0,0,8.06,13.9M7.983,9.358q-.351-.095-.68-.194A18.69,18.69,0,0,1,8.05,7.33c.143-.306.294-.6.45-.888.065-.118.126-.24.193-.354.161.062.327.122.5.179s.34.111.516.164A22,22,0,0,0,8.72,9.546c-.254-.061-.5-.123-.737-.188m1.452,2.751c.047-.365.1-.726.159-1.081.011-.067.022-.136.033-.2.342.084.7.162,1.059.235.305.061.616.12.933.173-.107,1.038-.18,2.12-.214,3.23-.348-.041-.688-.088-1.024-.138-.388-.057-.769-.118-1.139-.186.041-.693.108-1.369.193-2.031m2.314-2c-.306-.042-.6-.089-.9-.138-.349-.059-.691-.12-1.023-.186.142-.651.307-1.277.488-1.879q.165-.548.351-1.064c.019-.051.036-.105.055-.156q.392.087.8.16.381.068.775.125c-.221.975-.406,2.027-.552,3.137m-.534-7.193c.273-.246.545-.465.814-.665.056.022.112.039.163.056a8.215,8.215,0,0,0-.543.65,13.455,13.455,0,0,0-1.528,2.524c-.154-.032-.305-.067-.454-.1S9.353,5.3,9.2,5.259A13.034,13.034,0,0,1,10.2,3.946a10.129,10.129,0,0,1,1.018-1.028M9.86,2.969A12.849,12.849,0,0,0,8.213,4.928c-.061-.024-.122-.049-.177-.073l-.009,0c-.055-.022-.106-.047-.157-.072l-.009,0a12.47,12.47,0,0,1,2-1.805M6.925,5.926c.13-.176.26-.352.394-.518.056.037.114.07.171.106s.1.066.156.1a1.006,1.006,0,0,0,.093.049A17.78,17.78,0,0,0,6.233,8.8c-.192-.071-.371-.143-.545-.218-.1-.043-.2-.087-.3-.131A16.732,16.732,0,0,1,6.443,6.617q.235-.356.482-.691m-2.163.755A15.034,15.034,0,0,1,6.446,4.85,15.431,15.431,0,0,0,4.776,7.2c-.131.222-.253.453-.375.687a2.483,2.483,0,0,1-.287-.25L4.1,7.622l-.013-.015c.212-.318.439-.625.675-.926M2.853,9.963l-.025-.046c.068-.155.134-.311.207-.462.081-.17.17-.336.258-.5.166-.313.338-.623.525-.923.005.009.013.016.019.024a2.9,2.9,0,0,0,.313.349,17.175,17.175,0,0,0-.883,2.28c-.143-.233-.28-.474-.413-.719M4.425,12.33c-.1-.122-.2-.242-.3-.369q.181-.758.425-1.478c.083-.246.17-.489.264-.728.087-.222.175-.442.27-.657.1.058.2.114.3.171.184.1.374.2.578.3a20.5,20.5,0,0,0-.787,3.447c-.1-.042-.2-.088-.3-.132-.158-.178-.311-.362-.462-.55m2.562,2.517c-.153-.119-.306-.239-.456-.364.156.055.312.11.473.162.324.1.655.2,1,.295-.006.209-.008.422-.011.632-.344-.227-.678-.47-1.005-.724m3.308,2c-.156-.072-.31-.147-.464-.223-.215-.106-.428-.218-.638-.333,0-.093-.006-.183-.006-.276,0-.207,0-.413.008-.618,0-.056,0-.113,0-.168.367.079.744.152,1.128.219.346.061.7.116,1.055.166,0,.134,0,.266,0,.4,0,.435.009.865.021,1.293q-.56-.214-1.1-.461m2.773,1.015c-.155-.044-.308-.091-.462-.138-.007-.259-.008-.524-.013-.787,0-.307-.013-.61-.013-.921V15.76c.509.054,1.031.1,1.559.131v.122c0,.724.019,1.431.046,2.127q-.564-.126-1.117-.281m3.6.7q-.645-.072-1.282-.177-.02-.653-.031-1.322c-.006-.346-.013-.69-.014-1.043,0-.022,0-.042,0-.063q.606.022,1.227.026c.4,0,.8,0,1.2-.012v.049c0,.9-.023,1.777-.053,2.635q-.526-.036-1.049-.093m2.757.151c-.176,0-.35,0-.526-.005q.044-.884.058-1.8c0-.3.014-.588.014-.888v-.1c.529-.034,1.05-.078,1.558-.136,0,.08,0,.158,0,.239,0,.91-.028,1.8-.068,2.673q-.519.02-1.039.021m3.7-3.251c-.11.97-.2,1.8-.324,3.042-.326.041-.654.075-.982.1l-.158.012q.055-1.031.067-2.1c0-.169.008-.334.008-.5,0-.134,0-.263,0-.395.144-.022.282-.049.423-.072.022-.188.044-.384.069-.592q.392.226.786.44l.124-.026c0,.029-.007.059-.01.088m.184-1.586c-.014.121-.028.238-.041.351-.182.033-.36.066-.546.1-.332.054-.669.105-1.013.15-.025-.8-.075-1.576-.138-2.339-.024-.289-.044-.583-.073-.866.7-.115,1.363-.25,2-.4.044.249.083.5.12.754.093.636.164,1.289.217,1.955.014.181.029.362.04.545l-.1.019c-.154-.086-.309-.171-.463-.26m1.869,1.007c.593-.17,1.158-.357,1.688-.557.034.451.049.911.054,1.373q-.876-.381-1.741-.816m3.175,1.4-.228-.089c0-.059,0-.118,0-.177,0-.574-.023-1.138-.065-1.7-.012-.161-.019-.325-.035-.486l.183-.087a11.547,11.547,0,0,0,1.023-.563c.013.082.023.165.035.248.063.427.111.861.141,1.3.03.422.045.849.041,1.283,0,.223-.006.442-.012.662-.364-.126-.725-.259-1.085-.4m2.267.779c0-.008,0-.016,0-.023a6.142,6.142,0,0,0,.958-.96c0,.419-.022.834-.057,1.245q-.454-.124-.9-.262" transform="translate(-0.331 0)" fill="#f78d2d"/></g></svg>