<svg xmlns="http://www.w3.org/2000/svg" xmlns:xlink="http://www.w3.org/1999/xlink" width="28.957" height="32.593" viewBox="0 0 28.957 32.593"><defs><clipPath id="a"><rect width="28.957" height="32.593" fill="#f78d2d"/></clipPath></defs><g clip-path="url(#a)"><path d="M24.651,13.285c1.537,3.654,4.465,5.643,6.419,5.643,1.919,0,4.608-1.922,6.167-5.529a16.812,16.812,0,0,0,.933-3.089,12.3,12.3,0,0,0,.4-3.4C38.565,3.161,35.209,0,31.07,0s-7.494,3.161-7.494,6.908a16.346,16.346,0,0,0,.174,2.541,14.9,14.9,0,0,0,.9,3.836" transform="translate(-16.591 0)" fill="#f78d2d"/><path d="M27.732,71.391c-1.5-1.6-5.711-1.2-7.793-2.3-.926,1.732-.938,4.578-2.475,4.578a1.32,1.32,0,0,1-.206-.016C14.942,73.3,16.1,67.4,14.479,67.4S14.016,73.3,11.7,73.652a1.324,1.324,0,0,1-.206.016c-1.537,0-1.549-2.846-2.475-4.578-2.081,1.1-6.293.7-7.786,2.3C.422,72.259,0,77.633,0,80.021H28.958c0-2.388-.419-7.762-1.226-8.63" transform="translate(0 -47.428)" fill="#f78d2d"/></g></svg>