<svg xmlns="http://www.w3.org/2000/svg" xmlns:xlink="http://www.w3.org/1999/xlink" width="34.938" height="32" viewBox="0 0 34.938 32"><defs><clipPath id="a"><rect width="34.938" height="32" fill="#f78d2d"/></clipPath></defs><g clip-path="url(#a)"><path d="M9.83,78.362H1.546a.808.808,0,0,0-.8.805v2.348a.807.807,0,0,0,.8.8H9.83a.808.808,0,0,0,.805-.8V79.167a.808.808,0,0,0-.805-.805" transform="translate(-0.525 -55.566)" fill="#f78d2d"/><path d="M9.83,96.4H1.546a.807.807,0,0,0-.8.8v2.348a.807.807,0,0,0,.8.8H9.83a.808.808,0,0,0,.805-.8V97.2a.807.807,0,0,0-.805-.8" transform="translate(-0.525 -68.354)" fill="#f78d2d"/><path d="M49.794,78.362H41.51a.808.808,0,0,0-.805.805v2.348a.808.808,0,0,0,.805.8h8.284a.808.808,0,0,0,.805-.8V79.167a.808.808,0,0,0-.805-.805" transform="translate(-28.864 -55.566)" fill="#f78d2d"/><path d="M49.794,96.4H41.51a.807.807,0,0,0-.805.8v2.348a.808.808,0,0,0,.805.8h8.284a.808.808,0,0,0,.805-.8V97.2a.807.807,0,0,0-.805-.8" transform="translate(-28.864 -68.354)" fill="#f78d2d"/><path d="M49.794,60.329H41.51a.808.808,0,0,0-.805.805v2.347a.808.808,0,0,0,.805.805h8.284a.808.808,0,0,0,.805-.805V61.134a.808.808,0,0,0-.805-.805" transform="translate(-28.864 -42.779)" fill="#f78d2d"/><path d="M94.009,78.362H85.725a.808.808,0,0,0-.805.805v2.348a.807.807,0,0,0,.805.8h8.284a.807.807,0,0,0,.8-.8V79.167a.808.808,0,0,0-.8-.805" transform="translate(-60.216 -55.566)" fill="#f78d2d"/><path d="M94.009,96.4H85.725a.807.807,0,0,0-.805.8v2.348a.807.807,0,0,0,.805.8h8.284a.807.807,0,0,0,.8-.8V97.2a.807.807,0,0,0-.8-.8" transform="translate(-60.216 -68.354)" fill="#f78d2d"/><path d="M94.009,60.329H85.725a.808.808,0,0,0-.805.805v2.347a.808.808,0,0,0,.805.805h8.284a.808.808,0,0,0,.8-.805V61.134a.808.808,0,0,0-.8-.805" transform="translate(-60.216 -42.779)" fill="#f78d2d"/><path d="M94.009,42.3H85.725a.808.808,0,0,0-.805.805v2.347a.807.807,0,0,0,.805.806h8.284a.807.807,0,0,0,.8-.806V43.1a.808.808,0,0,0-.8-.805" transform="translate(-60.216 -29.992)" fill="#f78d2d"/></g></svg>