<svg xmlns="http://www.w3.org/2000/svg" xmlns:xlink="http://www.w3.org/1999/xlink" width="35.382" height="35.382" viewBox="0 0 35.382 35.382"><defs><clipPath id="a"><rect width="35.382" height="35.382" fill="#fff"/></clipPath></defs><g clip-path="url(#a)"><path d="M17.776,14.394a3.272,3.272,0,1,0,3.272,3.272,3.276,3.276,0,0,0-3.272-3.272" transform="translate(0 0)" fill="#fff"/><path d="M21.831,9.246H13.55a4.283,4.283,0,0,0-4.279,4.279v8.281a4.284,4.284,0,0,0,4.279,4.28h8.281a4.284,4.284,0,0,0,4.279-4.28V13.525a4.283,4.283,0,0,0-4.279-4.279M17.776,22.774a5.109,5.109,0,1,1,5.108-5.108,5.114,5.114,0,0,1-5.108,5.108m5.406-9.344A1.216,1.216,0,1,1,24.4,12.214a1.215,1.215,0,0,1-1.216,1.216" transform="translate(0 0)" fill="#fff"/><path d="M17.691,0A17.691,17.691,0,1,0,35.382,17.691,17.691,17.691,0,0,0,17.691,0M28.062,21.807a6.238,6.238,0,0,1-6.231,6.23H13.55a6.237,6.237,0,0,1-6.23-6.23V13.525A6.237,6.237,0,0,1,13.55,7.3h8.281a6.238,6.238,0,0,1,6.231,6.23Z" transform="translate(0 0)" fill="#fff"/></g></svg>