<svg xmlns="http://www.w3.org/2000/svg" xmlns:xlink="http://www.w3.org/1999/xlink" width="35.382" height="35.382" viewBox="0 0 35.382 35.382"><defs><clipPath id="a"><rect width="35.382" height="35.382" fill="#fff"/></clipPath></defs><g clip-path="url(#a)"><path d="M20.571,17.568l-4.663-2.537c-.191-.109-.845.029-.845.249v4.947c0,.217.649.355.84.252l4.871-2.41c.2-.107-.008-.39-.2-.5" transform="translate(0 0)" fill="#fff"/><path d="M17.691,0a17.691,17.691,0,1,0,17.69,17.69A17.69,17.69,0,0,0,17.691,0m9.471,20.218a4.248,4.248,0,0,1-4.248,4.248H12.051A4.248,4.248,0,0,1,7.8,20.218V15.163a4.248,4.248,0,0,1,4.248-4.248H22.914a4.248,4.248,0,0,1,4.248,4.248Z" transform="translate(0 0)" fill="#fff"/></g></svg>