<svg xmlns="http://www.w3.org/2000/svg" width="100" height="90.65" viewBox="0 0 100 90.65">
  <g id="ic-02" transform="translate(-91.267 -465.311)">
    <path id="Path_168" data-name="Path 168" d="M191.251,490.807a28,28,0,0,1-1.012,7.276c-1.667,16.417-29.26,34.811-47.988,57.761-.05.046,0,.046,0,.116-17.445-18.2-47.1-40.94-49.9-57.823a25.056,25.056,0,0,1-1.089-7.338,25.4,25.4,0,0,1,48.457-10.742,20.811,20.811,0,0,1,1.841,3.314,25.4,25.4,0,0,1,49.7,7.424Z" transform="translate(0 0)" fill="#fff"/>
  </g>
</svg>
