<svg xmlns="http://www.w3.org/2000/svg" width="66" height="139.152" viewBox="0 0 66 139.152">
  <g id="ic-06" transform="translate(-1744.988 -545.892)">
    <path id="Path_366" data-name="Path 366" d="M1764,666.78V583.873a11.125,11.125,0,0,1,3.354-8.215,14.624,14.624,0,0,1,10.589-4.13,12.509,12.509,0,0,1,13.481,11.462c.026.295.041.589.041.883v71.44a3.942,3.942,0,0,1-3.735,4.145,2.9,2.9,0,0,1-.36.005,3.491,3.491,0,0,1-3.644-3.323,3.77,3.77,0,0,1,.061-.827v-71.44a4.284,4.284,0,0,0-2.618-4.059,8.2,8.2,0,0,0-8.367,1.182,3.886,3.886,0,0,0-1.223,2.872l.066,82.825c.34,1.8,2.618,10.655,16.743,10.655a16.339,16.339,0,0,0,11.959-3.963,10,10,0,0,0,3-6.6l.081-85.565c-.081-1.193-.786-27.7-25.876-27.7a22.833,22.833,0,0,0-16.648,6.414,33.11,33.11,0,0,0-8.25,21.112v85.524a3.624,3.624,0,0,1-1.055,2.613,3.917,3.917,0,0,1-2.766,1.192,3.648,3.648,0,0,1-2.709-1.192,3.752,3.752,0,0,1-1.141-2.613l.091-85.575a40.912,40.912,0,0,1,10.655-26.658,29.431,29.431,0,0,1,21.817-8.428c25.877,0,33.2,23.046,33.436,35.126V666.9a18.518,18.518,0,0,1-5.337,12.06A23.854,23.854,0,0,1,1788.368,685c-17.9,0-23.847-11.609-24.4-18.225Z" transform="translate(0.001 0)" fill="#fff" fill-rule="evenodd"/>
  </g>
</svg>
