<svg xmlns="http://www.w3.org/2000/svg" width="100" height="129.465" viewBox="0 0 100 129.465">
  <g id="ic-04" transform="translate(-162.156 -591.67)">
    <path id="Path_157" data-name="Path 157" d="M234.637,646.178v-1l-.838-.361-1.219.361-.833,1.345v1h1Zm-24.647,4.149-.351.647H208.41v.722h.356v.341l.682-.2.537-.341.13-.527.692-.156.191-.5h-1Zm-3.277,1.174-.191.682,1.069-.15v-.682l-.527-.376Zm50.052,10.974.161-.191c0,.191.186.5.186.7ZM199.834,650.97l.351-.5.677.5-.5.376Zm1.365,1.214v.873h-1.505l-.341-.722v-.642h.156Zm-6.157-1.556h1.505l-1.857,2.765-.828-.532.156-1Zm3.618,1.706V653.4l-.682.5h-1.41l.191-.828.692-.2.191-.346Zm-.341-2.007v-1.059l.833.853Zm.677.306v.868l-.677.532-.873.15v-1.556Zm-1.214-1.174v.868h-2.745l-1-.4.336-.472,1.214-.527h1.862v.527Zm-6.147-3.432,1-.5,1.224.2-.537,1.505-1.034.326Zm10.442,58.081.156.191-.156,3.6,2.052,3.6,2.579,2.213,2.584.206.346-.908-1.9-1.711v-.863l.331-1.029.161-.838-1.355-.186-.7-.838,1.029-1,.2-.677-1.224-.341.191-.873,1.706-.2.346-.146h-4.631Zm-13.046-63.224s.818-.176,1-.176v1.029l-2.193.17-.376-.5Zm-1.565-2.068v-.15h.873l.186-.371h1.505v.718l-.5.683h-2.052Zm58.462,5.324v-2.047a13.672,13.672,0,0,1,2.238,2.393l-.888,1.365h-3.061l-.2-.662Zm7.025,8.585.331-.376c.341.723.687,1.4,1.039,2.233l-.5-.151-.858.151Zm-78.668-.873A32.8,32.8,0,0,1,176,648.782v.878Zm-1.711,1.9,1.556-1.9h0Zm-1.555,1.9v3.9l1.867.893v3.593l1.746,2.94,1.505.346.186-1.24-1.716-2.574-.331-2.544h1l.346,2.735,2.549,3.623-.682,1,1.556,2.383,3.959,1v-.677l1.505.151-.161,1.214,1.189.146,1.9.531,2.715,3.091,3.467.166.166,2.92-2.248,1.505-.156,2.619-.341,1.365,3.417,4.275.2,1.505,1.365.191c.151,0,2.74,2.042,2.74,2.042v7.527l1,.341-.191.683c.341,0,.687.186,1.039.186.713,0,1.194.19,1.9.19a7.716,7.716,0,0,0,1.892.156c.5,0,1.174.191,1.711.191h3.076a3.9,3.9,0,0,1,1.36-.191h.682l1.555-2.047-.677-2.75.863-1.535,2.559.17,1.711-1.365.5-5.309,1.9-2.574.316-1.555-1.716-.5-1.159-1.9h-3.964l-3.071-1.169-.191-2.258-1.034-1.892h-2.735l-1.711-2.539L203,673.941v.838l-2.74.186-.863-1.4-2.735-.5-2.243,2.574-3.608-.677-.351-3.939-2.579-.5,2.75-3.733-.351-1.235-3.262,2.409-2.238-.341-.682-1.706.351-1.726,1.2-2.047,2.745-1.365,5.329-.186v1.681l1.892.863-.186-2.725,1.35-1.37,2.745-1.907.186-1.219,2.75-2.875,2.92-1.556-.346-.151,2.057-1.892.677.191.331.5.7-.853.151-.156h-.687l-.833-.346v-.883l.341-.341H208.8l.527.186.346.853.5-.176,1.385-.191.336-.677.677.186v.853l-.677.346v.864l2.579.682v.156l.5-.156v-1L213.1,648.6l-.191-.5,1.741-.527v-1.505l-1.741-1V642.3l-2.388,1.214h-.833l.146-2.062-3.071-.687-1.365,1.029v2.936l-2.248.848-1,1.9-1.029.135v-2.544l-2.248-.186-1-.878-.5-1.505,3.9-2.409,1.9-.532.331,1.385,1.034-.176v-.677l1.214-.19v-.151l-.5-.2v-.682l1.365-.15.873-.868.2-.346,3.071-.341,1.174,1-3.427,1.9,4.3,1.043.692-1.385h1.862l.677-1.4-1.335-.306v-1.555l-4.32-1.892-2.69.341-1.746.873.186,2.042-1.706-.15-.351-1.214,1.706-1.555-2.915-.156-.843.341-.527,1,1.179.2-.141,1-1.9.146-.341.682-2.74.156s0-1.505-.151-1.505,2.042-.186,2.042-.186l1.716-1.505-.868-.341-1.184,1.029h-2.057l-1.2-1.711h-2.4L190.7,636.1H193.1l.346.677-.682.537,2.745.146.341.838-2.93-.155-.151-.683-1.892-.341-1.034-.527H187.6a43.351,43.351,0,0,1,26.062-8.53,44.178,44.178,0,0,1,29.509,11.119l-.532.878-2.052.848-.868,1,.191,1,1,.2.682,1.57,1.706-.722.341,2.087h-.5l-1.555-.19-1.555.341-1.706,2.233-2.213.356-.356,1.867.858.341-.151,1.214-2.444-.346-2.032.346-.346,1.214.346,2.389,1.224.7h2.047l1.36-.211.5-1.169,2.082-2.765,1.505.376,1.355-1.365.191,1,3.613,2.429-.5.5-1.505-.146.682.833.838.341,1.224-.5v-1.369l.5-.191-.5-.5-2.248-1.219-.693-1.886h1.907l.677.718,1.711,1.365v1.706l1.706,1.857.677-2.389,1.224-.677.156,2.042,1.219,1.234h2.388c.351,1.154.677,2.388,1.174,3.6l-.291.156H252.6l-2.067-1.706-2.228.341v1.365h-.888l-.672-.5-3.919-1v-2.594l-4.968.361-1.561.848h-2.052l-1-.186-2.414,1.385v2.574L226,664.739l.341,1.4h1l-.331,1.505-.692.2v3.754l4.3,4.978h1.892v-.356h3.422l.888-.873h1.847l1.034,1,2.92.381-.356,3.578,3.091,5.645-1.716,3.1.2,1.551,1.179,1.179v3.6l1.711,2.253v2.936h1.556a44.318,44.318,0,0,1-74.89-9.288l-1.234-1c-.672-.873-1.36-1.555-2.032-2.574a18.9,18.9,0,0,1-1.872-2.413,18.446,18.446,0,0,1-1.731-2.73l-.356-.677a48.385,48.385,0,0,0,90.691,12.7,53.957,53.957,0,0,0,4.11-10.648c.151-1,.341-1.9.5-2.92a43.583,43.583,0,0,0,.682-8.395v-.5a40.613,40.613,0,0,0-.151-4.28,49.526,49.526,0,0,0-3.262-13.232,1.129,1.129,0,0,0-.351-.833,47.5,47.5,0,0,0-9.067-14.05c-.156-.381-.5-.537-.692-.878-.677-.677-1.556-1.505-2.228-2.233a49.282,49.282,0,0,0-32.741-12.484,47.57,47.57,0,0,0-32.736,12.831,38.658,38.658,0,0,0-5.62,5.981,54.4,54.4,0,0,0-7.768,14.747l-.135,2.785v2.725a19.372,19.372,0,0,1,.135,2.75l.542,2.915c0,.346.191.868.191,1.169l.5,1.56c.151.677.341,1.209.532,1.887v-.868a45.174,45.174,0,0,1,3.417-17.472Zm19.946-44.056a.582.582,0,0,0,.677.13s-.2.341-.532.868c0,0-1.044,1.54-.692,2.072h0c.356.5,2.248.146,2.248.146a3.429,3.429,0,0,1,1.034-.146c-.206,0-.351.341-.351.677l1.029,3.071,2.378-2.047.191-2.579v-.361a6.568,6.568,0,0,0,.717-.472l8.395-5.173,4.441,12.871c.2.341.346.341.688.156l2.393-2.052a1.717,1.717,0,0,0,.341-1L211.531,604.2l8.229-5.64a6.99,6.99,0,0,0,2.544-3.608,1.686,1.686,0,0,0-.331-1.038v-.191a5.105,5.105,0,0,0-.838-.667,6.612,6.612,0,0,0-4.285,1l-8.41,5.173-11.661-7.371c-.191-.191-.677-.191-1-.191l-2.745,1.385a.6.6,0,0,0-.216.818l.025.035,10.141,9.077-8.244,5.66c0,.156-.5.326-.5.326h-.5l-2.4-.848-2.93,1.4h.186Zm-3.091,1.836a5.947,5.947,0,0,0-1.064.873,25.629,25.629,0,0,0-3.417,2.594c-.677.5-1.505,1.375-2.393,2.047a33.477,33.477,0,0,0-2.584,2.544c-.828,1-1.857,2.087-2.88,3.126-.873,1.169-1.756,2.388-2.765,3.6a48.111,48.111,0,0,0-2.74,4.265c-.5.683-.843,1.551-1.38,2.233a26.052,26.052,0,0,1-1.224,2.389,52.331,52.331,0,0,0-2.188,5.329,18.283,18.283,0,0,0-.883,2.75,15.838,15.838,0,0,0-.833,2.9c-.446,1.987-.793,4-1.039,6.021a17.106,17.106,0,0,0-.326,3.071v4.641l.141,1.716a19.708,19.708,0,0,0,.351,3.071l.677,3.106a5.955,5.955,0,0,0,.341,1.505l.346,1.556c.341,1,.687,2.042,1.034,3.071l1.375,2.885a29.845,29.845,0,0,0,1.545,2.8c.537.813,1,1.706,1.706,2.71a26.006,26.006,0,0,0,1.912,2.409,20.531,20.531,0,0,0,2.042,2.233,37.9,37.9,0,0,0,4.446,4.109,40.587,40.587,0,0,0,9.759,5.63,43.17,43.17,0,0,0,9.609,2.935c1.555.166,3.076.547,4.441.683a8.836,8.836,0,0,1,2.087.171h5.474a4.92,4.92,0,0,1,1.555-.171,4.231,4.231,0,0,0,1.375-.136c1,0,1.711-.19,2.388-.19a7.666,7.666,0,0,1,1.9-.356c.828-.191,1.36-.326,1.36-.326a6.732,6.732,0,0,1-1.55.135,11.114,11.114,0,0,1-1.711.356,10.57,10.57,0,0,0-2.388.2h-6.523c-.5,0-1.189-.2-1.872-.2s-1.4-.166-2.087-.166c-1.365-.191-2.74-.5-4.255-.853a43.588,43.588,0,0,1-9.273-3.256A38.079,38.079,0,0,1,179.1,691.6c-1.36-1.209-2.74-2.574-4.1-3.939-.532-.838-1.224-1.506-1.706-2.2a18.334,18.334,0,0,1-1.711-2.574,36.376,36.376,0,0,1-4.827-10.8l-.331-1.555c-.161-.346-.161-.838-.356-1.365l-.5-2.94a17,17,0,0,0-.191-3.071v-2.91c0-.893.191-1.857.191-2.905a17.081,17.081,0,0,0,.346-2.765c.351-1.856.838-3.753,1.375-5.64a11.558,11.558,0,0,1,.868-2.6,14.978,14.978,0,0,1,.833-2.534,32.868,32.868,0,0,1,2.258-4.651,24.776,24.776,0,0,0,1.164-2.228c.537-.647.883-1.365,1.365-2.047a32.092,32.092,0,0,1,2.78-3.753,38.906,38.906,0,0,1,2.74-3.282c.823-1,1.887-1.856,2.725-2.75a19.707,19.707,0,0,1,2.4-2.213c.868-.677,1.55-1.2,2.233-1.721,1.375-1.029,2.589-1.867,3.221-2.394.893-.5,1.42-.833,1.42-.833Zm47.97,32.274v.622l-1,.2-.191,1.556h1.395l1.716-.191.828-1-1.029-.361-.5-.682-.647-1.174-.351-1.766-1.555.2-.341.7v.677l.692.527Z" transform="translate(0 0)" fill="#fff" fill-rule="evenodd"/>
  </g>
</svg>
