<svg xmlns="http://www.w3.org/2000/svg" width="100" height="89.105" viewBox="0 0 100 89.105">
  <g id="ic-03" transform="translate(-286.83 -720.666)">
    <path id="Path_120" data-name="Path 120" d="M386.818,765.391a8.846,8.846,0,0,1-17.669.689H351.3a15.018,15.018,0,0,1-6.692,11.662l8.94,15.48a8.622,8.622,0,1,1-1.324.709l-8.959-15.449a14.912,14.912,0,0,1-6.684,1.652,14.192,14.192,0,0,1-6.7-1.757l-8.908,15.554a8.643,8.643,0,1,1-1.3-.8l8.909-15.391a14.489,14.489,0,0,1-6.661-11.662H304a8.614,8.614,0,1,1,.043-1.488h17.883a14.465,14.465,0,0,1,6.661-11.663l-8.908-15.386a8.859,8.859,0,1,1,3.9-12.465,8.746,8.746,0,0,1-2.586,11.639L329.9,752.3a13.832,13.832,0,0,1,13.384,0l8.959-15.581a8.567,8.567,0,1,1,1.324.81l-8.94,15.386a14.648,14.648,0,0,1,6.595,11.663h17.942a8.812,8.812,0,0,1,8.753-8.122,8.961,8.961,0,0,1,8.916,8.92Z" transform="translate(0 0)" fill="#fff"/>
  </g>
</svg>
