<svg xmlns="http://www.w3.org/2000/svg" xmlns:xlink="http://www.w3.org/1999/xlink" width="100" height="102.945" viewBox="0 0 100 102.945">
  <defs>
    <clipPath id="clip-path">
      <rect id="Rectangle_44" data-name="Rectangle 44" width="100" height="102.945" fill="#fff"/>
    </clipPath>
  </defs>
  <g id="ic-09" clip-path="url(#clip-path)">
    <path id="Path_62" data-name="Path 62" d="M97.15,45.807H2.849A2.857,2.857,0,0,0,0,48.655v54.379a2.858,2.858,0,0,0,2.849,2.849H36.355a2.857,2.857,0,0,0,2.849-2.849V70.972c0-.567,1.281-1.031,2.848-1.031h15.9c1.566,0,2.848.464,2.848,1.031v32.062a2.858,2.858,0,0,0,2.85,2.849h33.5A2.856,2.856,0,0,0,100,103.034V48.655a2.855,2.855,0,0,0-2.849-2.848M20.442,83.932a2.856,2.856,0,0,1-2.849,2.848H13.517a2.856,2.856,0,0,1-2.85-2.848v-5.9a2.857,2.857,0,0,1,2.85-2.848h4.077a2.857,2.857,0,0,1,2.849,2.848Zm0-14.777A2.856,2.856,0,0,1,17.593,72H13.517a2.856,2.856,0,0,1-2.85-2.849V63.714a2.858,2.858,0,0,1,2.85-2.849h4.077a2.858,2.858,0,0,1,2.849,2.849ZM33.4,83.932a2.854,2.854,0,0,1-2.847,2.848H26.475a2.856,2.856,0,0,1-2.85-2.848v-5.9a2.857,2.857,0,0,1,2.85-2.848h4.077A2.855,2.855,0,0,1,33.4,78.036Zm0-14.777A2.855,2.855,0,0,1,30.551,72H26.475a2.856,2.856,0,0,1-2.85-2.849V63.714a2.858,2.858,0,0,1,2.85-2.849h4.077A2.856,2.856,0,0,1,33.4,63.714ZM76.376,83.932a2.855,2.855,0,0,1-2.849,2.848H69.45A2.856,2.856,0,0,1,66.6,83.932v-5.9a2.856,2.856,0,0,1,2.848-2.848h4.078a2.856,2.856,0,0,1,2.849,2.848Zm0-14.777A2.856,2.856,0,0,1,73.527,72H69.45A2.856,2.856,0,0,1,66.6,69.155V63.714a2.858,2.858,0,0,1,2.848-2.849h4.078a2.857,2.857,0,0,1,2.849,2.849ZM89.334,83.932a2.856,2.856,0,0,1-2.848,2.848H82.409a2.856,2.856,0,0,1-2.849-2.848v-5.9a2.857,2.857,0,0,1,2.849-2.848h4.078a2.856,2.856,0,0,1,2.848,2.848Zm0-14.777A2.856,2.856,0,0,1,86.486,72H82.409a2.856,2.856,0,0,1-2.849-2.849V63.714a2.858,2.858,0,0,1,2.849-2.849h4.078a2.858,2.858,0,0,1,2.848,2.849Z" transform="translate(0 -2.938)" fill="#fff"/>
    <path id="Path_63" data-name="Path 63" d="M2.951,37.609h94.3c1.568,0,1.835-.783.593-1.742L52.356.72a3.891,3.891,0,0,0-4.509,0L28.784,15.447a2,2,0,0,1-1.17.489c-.649,0-1.085-.569-1.085-1.6V2.961A2.858,2.858,0,0,0,23.682.111H15.371a2.856,2.856,0,0,0-2.849,2.85v22.2a6.567,6.567,0,0,1-2.253,4.589L2.357,35.867c-1.239.958-.972,1.742.594,1.742" transform="translate(-0.101 0)" fill="#fff"/>
  </g>
</svg>
