<svg xmlns="http://www.w3.org/2000/svg" width="100" height="100.004" viewBox="0 0 100 100.004">
  <g id="ic-05" transform="translate(-1016.518 -609.787)">
    <path id="Path_262" data-name="Path 262" d="M1066.64,618.243a41.425,41.425,0,1,0,29.486,12.18A41.425,41.425,0,0,0,1066.64,618.243Zm-7.469,57.8h0a5.662,5.662,0,0,1-1.5-.255,7.1,7.1,0,0,1-1.226-.936l-9.377-9.37a3.506,3.506,0,0,1-1.136-2.912,3.74,3.74,0,0,1,1.136-2.839,3.8,3.8,0,0,1,3.021-1.092,3.747,3.747,0,0,1,2.843,1.092l6.236,6.447,21.262-21.175a3.888,3.888,0,0,1,2.912-1.143,4.022,4.022,0,0,1,2.836,1.143,3.679,3.679,0,0,1,1.139,2.912,3.272,3.272,0,0,1-1.139,2.752l-24.025,24.193a9.684,9.684,0,0,0-1.318.936,6.014,6.014,0,0,1-1.7.255Zm7.469,33.744h0a50,50,0,1,1,35.23-14.641A50,50,0,0,1,1066.64,709.791Z" transform="translate(0)" fill="#fff" fill-rule="evenodd"/>
  </g>
</svg>
