<svg xmlns="http://www.w3.org/2000/svg" width="100" height="93.097" viewBox="0 0 100 93.097">
  <g id="ic-01" transform="translate(-250 -1472)">
    <path id="Path_381" data-name="Path 381" d="M539.741,472.393h.01c-2.494-.316-2.494-7.269-2.494-7.269a34.763,34.763,0,0,0,8.877-16.787c4.224,0,6.912-10.261,2.687-14.028.153-3.614,5.457-29.757-21.449-29.757-26.642,0-21.46,26.143-21.256,29.757-4.357,3.777-1.67,14.028,2.494,14.028a35.514,35.514,0,0,0,8.877,16.787s0,6.953-2.454,7.269c-8,1.222-34.49,10.618-34.49,25.257h100C580.543,483.021,547.8,473.625,539.741,472.393Z" transform="translate(-230.543 1067.447)" fill="#fff"/>
  </g>
</svg>
