<svg xmlns="http://www.w3.org/2000/svg" width="100" height="117.388" viewBox="0 0 100 117.388">
  <g id="ic-08" transform="translate(-360.574 -546.022)">
    <path id="Path_167" data-name="Path 167" d="M410.54,553.934a61.682,61.682,0,0,1,19.072,3.082,53.875,53.875,0,0,1,16.114,8.794,41.644,41.644,0,0,1,11.043,13.45,35.08,35.08,0,0,1,3.805,15.823v1.739c0,.269-.1.633-.1.833v.76l-.255,2-.1,1.593-1.4-.765-1.7-.965a18.924,18.924,0,0,0-2.276-.983,9.787,9.787,0,0,0-2.276-.765,15.839,15.839,0,0,0-2.526-.455,12.706,12.706,0,0,0-2.458-.15,19.242,19.242,0,0,0-3.951.41,17.173,17.173,0,0,0-3.814,1.079,30.331,30.331,0,0,0-3.578,2.012,17.525,17.525,0,0,0-3.086,2.563l-.983,1.138-.869.969-.774-.969-.806-1.243a27.7,27.7,0,0,0-3.869-4.1,22.367,22.367,0,0,0-4.552-3.082,34.911,34.911,0,0,0-5.194-1.857,24.688,24.688,0,0,0-10.888,0,34.546,34.546,0,0,0-5.189,1.857,24.631,24.631,0,0,0-4.552,3.082,27.194,27.194,0,0,0-3.86,4.1l-.81,1.243-.774.969-.883-.969-.974-1.138a18.624,18.624,0,0,0-3.073-2.563,30.98,30.98,0,0,0-3.605-2.012,16.583,16.583,0,0,0-3.8-1.079,19.177,19.177,0,0,0-3.951-.41,13.282,13.282,0,0,0-2.476.15,22.515,22.515,0,0,0-2.513.455,10.144,10.144,0,0,0-2.312.765,16.693,16.693,0,0,0-2.208.983l-1.743.965-1.366.765-.109-1.593-.25-2v-.76c0-.2-.1-.455-.1-.833v-1.739a35.434,35.434,0,0,1,3.787-15.823,42.51,42.51,0,0,1,11.006-13.45,54.555,54.555,0,0,1,16.173-8.794,61.786,61.786,0,0,1,19.063-3.082ZM394.363,654.407h13.619V595.178a21.9,21.9,0,0,1,2.563-.1,25.2,25.2,0,0,1,2.622.1V654.4h13.56v9.008H394.363ZM410.79,546.022h-.505a2.273,2.273,0,0,0-2.3,2.244v4.679h5.18v-4.552a2.307,2.307,0,0,0-2.249-2.372Z" transform="translate(0 0)" fill="#fff" fill-rule="evenodd"/>
  </g>
</svg>
