<svg id="ic-10" xmlns="http://www.w3.org/2000/svg" xmlns:xlink="http://www.w3.org/1999/xlink" width="100" height="71.556" viewBox="0 0 100 71.556">
  <defs>
    <clipPath id="clip-path">
      <rect id="Rectangle_45" data-name="Rectangle 45" width="100" height="71.556" fill="#fff"/>
    </clipPath>
  </defs>
  <g id="ic1-6" clip-path="url(#clip-path)">
    <path id="Path_64" data-name="Path 64" d="M39.528,38.266A15.525,15.525,0,1,0,55.051,53.788,15.525,15.525,0,0,0,39.528,38.266m0,26.65A11.127,11.127,0,1,1,50.655,53.788,11.127,11.127,0,0,1,39.528,64.916" transform="translate(-8.387 -13.374)" fill="#fff"/>
    <path id="Path_65" data-name="Path 65" d="M57.622,37.378,59.767,32.7,56.7,27.392l-4.973-.469q-.792-.889-1.66-1.7l-.483-5.135-5.317-3.063L39.739,19.1c-.753-.245-1.526-.464-2.3-.645l-2.979-4.194H28.322l-2.889,4.065c-.779.163-1.557.362-2.317.588l-4.679-2.138-5.307,3.064-.47,4.974c-.585.528-1.158,1.081-1.693,1.661l-5.136.481L2.761,32.27,4.833,36.8c-.245.754-.457,1.525-.643,2.3L0,42.085v6.133l4.061,2.888c.161.779.359,1.559.591,2.316L2.51,58.1,5.58,63.41l4.974.47q.793.879,1.654,1.693l.489,5.134,5.308,3.069,4.532-2.071c.753.245,1.524.464,2.3.644l2.98,4.189H33.96l2.883-4.06c.784-.167,1.557-.36,2.317-.592l4.678,2.143,5.309-3.071.469-4.973q.89-.792,1.7-1.656l5.136-.489,3.063-5.315L57.442,54c.245-.758.464-1.523.644-2.3l4.2-2.98v-6.14L58.215,39.7q-.244-1.179-.593-2.319M31.14,65.226A19.827,19.827,0,1,1,50.969,45.4,19.825,19.825,0,0,1,31.14,65.226" transform="translate(0 -4.983)" fill="#fff"/>
    <path id="Path_66" data-name="Path 66" d="M115.3,16.413a10.612,10.612,0,1,0,10.618,10.613A10.61,10.61,0,0,0,115.3,16.413m0,18.219a7.606,7.606,0,1,1,7.606-7.606,7.609,7.609,0,0,1-7.606,7.606" transform="translate(-36.59 -5.736)" fill="#fff"/>
    <path id="Path_67" data-name="Path 67" d="M130.855,23.554V19.366l-2.774-1.976c-.115-.533-.252-1.062-.405-1.583l1.46-3.2-2.092-3.63-3.4-.32c-.36-.4-.738-.792-1.132-1.159l-.334-3.508-3.629-2.1-3.1,1.414c-.516-.167-1.043-.314-1.571-.436L111.837,0h-4.189l-1.976,2.781c-.541.109-1.067.251-1.584.406l-3.2-1.467-3.629,2.1-.322,3.4c-.4.362-.791.74-1.165,1.14l-3.507.327-2.092,3.63,1.416,3.1c-.172.517-.316,1.043-.444,1.572l-2.864,2.04v4.189l2.78,1.976a15.921,15.921,0,0,0,.405,1.583L90,29.972,92.1,33.6l3.4.321c.36.4.74.792,1.133,1.159l.333,3.508,3.631,2.1,3.1-1.416q.772.252,1.577.444l2.034,2.858h4.2l1.975-2.775a15.894,15.894,0,0,0,1.576-.405l3.2,1.469,3.629-2.1.323-3.4c.405-.36.792-.739,1.165-1.138l3.508-.329,2.1-3.629-1.422-3.094a16.3,16.3,0,0,0,.444-1.576Zm-21.289,11.29A13.553,13.553,0,1,1,123.125,21.29a13.56,13.56,0,0,1-13.559,13.553" transform="translate(-30.855)" fill="#fff"/>
  </g>
</svg>
