<svg xmlns="http://www.w3.org/2000/svg" xmlns:xlink="http://www.w3.org/1999/xlink" width="100" height="99.058" viewBox="0 0 100 99.058">
  <defs>
    <clipPath id="clip-path">
      <rect id="Rectangle_22" data-name="Rectangle 22" width="100" height="99.058" fill="#fff"/>
    </clipPath>
  </defs>
  <g id="ic-11" clip-path="url(#clip-path)">
    <path id="Path_26" data-name="Path 26" d="M67.373,95.123H37.4A13.4,13.4,0,0,0,24,108.52H80.771a13.4,13.4,0,0,0-13.4-13.4" transform="translate(-2.388 -9.462)" fill="#fff"/>
    <rect id="Rectangle_21" data-name="Rectangle 21" width="17.458" height="10.15" transform="translate(41.271 72.669)" fill="#fff"/>
    <path id="Path_27" data-name="Path 27" d="M97.47,0H2.53A2.537,2.537,0,0,0,0,2.531v64.36a2.537,2.537,0,0,0,2.53,2.53H97.47a2.537,2.537,0,0,0,2.53-2.53V2.531A2.537,2.537,0,0,0,97.47,0M90.286,57.148A2.564,2.564,0,0,1,87.7,59.679H12.3a2.564,2.564,0,0,1-2.583-2.531V12.274A2.564,2.564,0,0,1,12.3,9.744H87.7a2.564,2.564,0,0,1,2.583,2.53Z" transform="translate(0 0)" fill="#fff"/>
  </g>
</svg>
