<svg id="ic-12" xmlns="http://www.w3.org/2000/svg" xmlns:xlink="http://www.w3.org/1999/xlink" width="100" height="91.59" viewBox="0 0 100 91.59">
  <defs>
    <clipPath id="clip-path">
      <rect id="Rectangle_24" data-name="Rectangle 24" width="99.999" height="91.59" fill="#fff"/>
    </clipPath>
  </defs>
  <path id="Path_30" data-name="Path 30" d="M57.225,13.358l7.253,3.574L0,54.654l3.356,5.735L68.239,22.43l-.845,8.311L100,0Z" transform="translate(0 0)" fill="#fff"/>
  <g id="Group_46" data-name="Group 46" transform="translate(0.001)">
    <g id="ic3-3" clip-path="url(#clip-path)">
      <path id="Path_31" data-name="Path 31" d="M26.756,78.362H3.045a2.311,2.311,0,0,0-2.3,2.3v6.719a2.31,2.31,0,0,0,2.3,2.3H26.756a2.311,2.311,0,0,0,2.3-2.3V80.667a2.312,2.312,0,0,0-2.3-2.3" transform="translate(-0.124 -13.115)" fill="#fff"/>
      <path id="Path_32" data-name="Path 32" d="M26.756,96.4H3.045a2.311,2.311,0,0,0-2.3,2.3v6.719a2.31,2.31,0,0,0,2.3,2.3H26.756a2.311,2.311,0,0,0,2.3-2.3V98.7a2.311,2.311,0,0,0-2.3-2.3" transform="translate(-0.124 -16.133)" fill="#fff"/>
      <path id="Path_33" data-name="Path 33" d="M66.721,78.362H43.01a2.312,2.312,0,0,0-2.3,2.3v6.719a2.311,2.311,0,0,0,2.3,2.3H66.721a2.311,2.311,0,0,0,2.3-2.3V80.667a2.312,2.312,0,0,0-2.3-2.3" transform="translate(-6.813 -13.115)" fill="#fff"/>
      <path id="Path_34" data-name="Path 34" d="M66.721,96.4H43.01a2.311,2.311,0,0,0-2.3,2.3v6.719a2.311,2.311,0,0,0,2.3,2.3H66.721a2.311,2.311,0,0,0,2.3-2.3V98.7a2.311,2.311,0,0,0-2.3-2.3" transform="translate(-6.813 -16.133)" fill="#fff"/>
      <path id="Path_35" data-name="Path 35" d="M66.721,60.329H43.01a2.312,2.312,0,0,0-2.3,2.3v6.719a2.312,2.312,0,0,0,2.3,2.3H66.721a2.312,2.312,0,0,0,2.3-2.3V62.634a2.312,2.312,0,0,0-2.3-2.3" transform="translate(-6.813 -10.097)" fill="#fff"/>
      <path id="Path_36" data-name="Path 36" d="M110.935,78.362H87.225a2.311,2.311,0,0,0-2.3,2.3v6.719a2.311,2.311,0,0,0,2.3,2.3h23.711a2.31,2.31,0,0,0,2.3-2.3V80.667a2.311,2.311,0,0,0-2.3-2.3" transform="translate(-14.213 -13.115)" fill="#fff"/>
      <path id="Path_37" data-name="Path 37" d="M110.935,96.4H87.225a2.311,2.311,0,0,0-2.3,2.3v6.719a2.311,2.311,0,0,0,2.3,2.3h23.711a2.31,2.31,0,0,0,2.3-2.3V98.7a2.311,2.311,0,0,0-2.3-2.3" transform="translate(-14.213 -16.133)" fill="#fff"/>
      <path id="Path_38" data-name="Path 38" d="M110.935,60.329H87.225a2.311,2.311,0,0,0-2.3,2.3v6.719a2.311,2.311,0,0,0,2.3,2.3h23.711a2.311,2.311,0,0,0,2.3-2.3V62.634a2.311,2.311,0,0,0-2.3-2.3" transform="translate(-14.213 -10.097)" fill="#fff"/>
      <path id="Path_39" data-name="Path 39" d="M110.935,42.3H87.225a2.311,2.311,0,0,0-2.3,2.3v6.718a2.311,2.311,0,0,0,2.3,2.306h23.711a2.311,2.311,0,0,0,2.3-2.306V44.6a2.311,2.311,0,0,0-2.3-2.3" transform="translate(-14.213 -7.079)" fill="#fff"/>
    </g>
  </g>
</svg>
