<svg xmlns="http://www.w3.org/2000/svg" xmlns:xlink="http://www.w3.org/1999/xlink" width="122.22" height="140" viewBox="0 0 122.22 140"><defs><clipPath id="a"><rect width="122.22" height="140" fill="none"/></clipPath></defs><g transform="translate(89.785 59)"><g transform="translate(-89.785 -59)"><g transform="translate(0 0)" clip-path="url(#a)"><path d="M87.456,0a35.666,35.666,0,0,0-24.7,10.335l-48.7,47.648a48.061,48.061,0,0,0,67.968,67.968l21.9-21.9L91.835,91.967l-20.32,19.795-1.577,2.277a30.978,30.978,0,0,1-43.794,0c-11.894-11.912-11.562-31.181,0-43.268L74.843,22.6a18.085,18.085,0,0,1,25.225,0c6.832,6.832,6.481,17.693,0,24.7L56.275,90.566a4.707,4.707,0,0,1-6.657-6.657l1.051-.526L66.61,66.917,54.523,54.83,37.531,71.822a21.677,21.677,0,0,0,30.656,30.656L111.98,59.735A34.948,34.948,0,0,0,87.281.175Z" transform="translate(-0.008 -0.009)" fill="#f8f8f8"/></g></g></g></svg>