<svg xmlns="http://www.w3.org/2000/svg" xmlns:xlink="http://www.w3.org/1999/xlink" width="142" height="142" viewBox="0 0 142 142"><defs><clipPath id="a"><rect width="142" height="142" transform="translate(-0.24 -0.331)" fill="none"/></clipPath></defs><g transform="translate(99.785 60)"><g transform="translate(-99.545 -59.669)"><g transform="translate(0)" clip-path="url(#a)"><path d="M70.669,0a70.669,70.669,0,1,0,70.669,70.669A70.876,70.876,0,0,0,70.669,0m0,17.667a53,53,0,1,1-53,53,52.931,52.931,0,0,1,53-53m0,17.667A8.834,8.834,0,1,0,79.5,44.168a8.748,8.748,0,0,0-8.834-8.834M41.341,53a8.838,8.838,0,0,0-3.357,14.84L54.062,83.919A17.94,17.94,0,0,0,53,88.336,17.667,17.667,0,1,0,70.669,70.669a17.94,17.94,0,0,0-4.417,1.06L50.175,55.652A8.825,8.825,0,0,0,42.4,52.825q-.53-.026-1.06,0Zm55.828,0A8.834,8.834,0,1,0,106,61.835,8.748,8.748,0,0,0,97.169,53" fill="#f8f8f8"/></g></g></g></svg>