<svg xmlns="http://www.w3.org/2000/svg" xmlns:xlink="http://www.w3.org/1999/xlink" width="165.796" height="141.337" viewBox="0 0 165.796 141.337"><defs><clipPath id="a"><rect width="165.796" height="141.337" fill="none"/></clipPath></defs><g transform="translate(112.108 59.669)"><g transform="translate(-112.108 -59.669)"><g clip-path="url(#a)"><path d="M41.449,0a41.7,41.7,0,0,0-29.22,12.229A40.943,40.943,0,0,0,0,41.449a41.7,41.7,0,0,0,12.229,29.22L82.9,141.337l70.669-70.669A41.047,41.047,0,0,0,165.8,41.449a41.775,41.775,0,0,0-12.229-29.22A40.974,40.974,0,0,0,124.347,0a41.7,41.7,0,0,0-29.22,12.229A40.943,40.943,0,0,0,82.9,41.449a41.7,41.7,0,0,0-12.229-29.22A40.974,40.974,0,0,0,41.449,0" transform="translate(0 0.002)" fill="#f8f8f8"/></g></g></g></svg>