<svg xmlns="http://www.w3.org/2000/svg" width="139.978" height="140.004" viewBox="0 0 139.978 140.004"><g transform="translate(0 0)"><g transform="translate(98.785 60)"><g transform="translate(41.193 76.005)"><path d="M5.961.039A8.743,8.743,0,0,0,.013,8.787V96.265a8.751,8.751,0,0,0,8.748,8.748H52.5v17.5H35a17.547,17.547,0,0,0-17.5,17.5H122.482a17.547,17.547,0,0,0-17.5-17.5h-17.5v-17.5H131.23a8.751,8.751,0,0,0,8.748-8.748V8.787A8.751,8.751,0,0,0,131.23.039H8.761a7.893,7.893,0,0,0-1.575,0q-.525-.026-1.05,0Zm11.547,17.5H122.482V87.517H17.509Z" transform="translate(-139.978 -136.004)" fill="#f8f8f8"/></g></g></g></svg>