<svg xmlns="http://www.w3.org/2000/svg" xmlns:xlink="http://www.w3.org/1999/xlink" width="121.358" height="140" viewBox="0 0 121.358 140"><defs><clipPath id="a"><rect width="121.358" height="140" transform="translate(0 0)" fill="none"/></clipPath></defs><g transform="translate(89.785 59)"><g transform="translate(-67.785 -59)"><g transform="translate(-22 0)" clip-path="url(#a)"><path d="M102.592,72.5a37.91,37.91,0,0,0-5.38-2.5,37.909,37.909,0,0,0,5.38-2.5,37.609,37.609,0,0,0,18.767-32.466,37.579,37.579,0,0,0-37.534,0,39.613,39.613,0,0,0-4.879,3.378A37.222,37.222,0,0,0,60.679,0,37.222,37.222,0,0,0,42.413,38.409a34.139,34.139,0,0,0-4.879-3.441A37.581,37.581,0,0,0,0,34.969,37.346,37.346,0,0,0,18.767,67.435a37.91,37.91,0,0,0,5.38,2.5A37.02,37.02,0,0,0,0,104.906a37.579,37.579,0,0,0,37.534,0,39.613,39.613,0,0,0,4.879-3.378,38.893,38.893,0,0,0-.5,6.005A37.515,37.515,0,0,0,60.679,140a37.222,37.222,0,0,0,18.266-38.409,33.782,33.782,0,0,0,4.879,3.378,37.581,37.581,0,0,0,37.534,0A37.609,37.609,0,0,0,102.592,72.5M60.679,95.022A25.022,25.022,0,1,1,85.7,70,25.015,25.015,0,0,1,60.679,95.022" fill="#f8f8f8"/></g></g></g></svg>