<svg xmlns="http://www.w3.org/2000/svg" xmlns:xlink="http://www.w3.org/1999/xlink" width="140" height="140" viewBox="0 0 140 140"><defs><clipPath id="a"><rect width="140" height="140" fill="none"/></clipPath></defs><g transform="translate(98.785 59)"><g transform="translate(-98.785 -59)"><g clip-path="url(#a)"><path d="M52.5,0A17.723,17.723,0,0,0,39.9,4.9,17.723,17.723,0,0,0,35,17.5c0,4.9,3.15,8.4,4.9,12.6.525,1.05.525,2.8.525,4.9H0V140H40.425a17.281,17.281,0,0,0-.525-4.9c-1.75-4.2-4.9-7.7-4.9-12.6a17.723,17.723,0,0,1,4.9-12.6A17.723,17.723,0,0,1,52.5,105a17.723,17.723,0,0,1,12.6,4.9A17.723,17.723,0,0,1,70,122.5c0,4.9-3.15,8.4-4.9,12.6-.525,1.05-.525,2.8-.525,4.9H105V99.575a17.281,17.281,0,0,1,4.9.525c4.2,1.75,7.7,4.9,12.6,4.9a17.506,17.506,0,1,0,0-35c-4.9,0-8.4,3.15-12.6,4.9-1.05.525-2.8.525-4.9.525V35H64.575a17.281,17.281,0,0,1,.525-4.9c1.75-4.2,4.9-7.7,4.9-12.6A17.723,17.723,0,0,0,65.1,4.9,17.723,17.723,0,0,0,52.5,0" transform="translate(12 0)" fill="#f8f8f8"/></g></g></g></svg>