<svg xmlns="http://www.w3.org/2000/svg" xmlns:xlink="http://www.w3.org/1999/xlink" width="103.166" height="141.337" viewBox="0 0 103.166 141.337"><defs><clipPath id="a"><rect width="103.166" height="141.337" fill="none"/></clipPath></defs><g transform="translate(80.7 59.669)"><g transform="translate(-80.7 -59.669)"><g transform="translate(0 0)" clip-path="url(#a)"><path d="M51.583,0,45.737,5.846C43.846,7.737,0,52.1,0,89.754a51.583,51.583,0,1,0,103.166,0c0-37.484-43.846-82.017-45.737-83.908ZM25.791,81.157a8.514,8.514,0,0,1,8.6,8.6,17.245,17.245,0,0,0,17.194,17.194,8.6,8.6,0,1,1,0,17.194A34.49,34.49,0,0,1,17.194,89.754a8.514,8.514,0,0,1,8.6-8.6" transform="translate(0 0)" fill="#f8f8f8"/></g></g></g></svg>