<svg xmlns="http://www.w3.org/2000/svg" xmlns:xlink="http://www.w3.org/1999/xlink" width="142" height="142" viewBox="0 0 142 142"><defs><clipPath id="a"><rect width="142" height="142" transform="translate(-0.24 -0.331)" fill="none"/></clipPath></defs><g transform="translate(99.785 60)"><g transform="translate(-99.545 -59.669)"><g transform="translate(0)" clip-path="url(#a)"><path d="M70.669,0a70.669,70.669,0,1,0,70.669,70.669A70.649,70.649,0,0,0,70.669,0m0,17.667c5.83,0,11.307,1.59,16.607,3.357-3.71,3.533-7.95,6.714-7.244,9.894s12.19,2.3,12.19,8.834c0,4.77-7.42,6.184-2.3,11.66,6.184,6.184-11.307,17.314-11.66,25.441-.53,14.664,14.84,17.137,27.031,17.137,7.42,0,9.364,3.533,8.834,7.774-9.54,13.6-25.794,22.084-43.638,22.084a50.658,50.658,0,0,1-18.727-3.887c3.887-7.774-4.947-23.144-13.25-28.091-4.063-4.063-12.72-2.473-17.667-4.417-1.59-4.77-3.18-9.54-3.357-14.84a3.125,3.125,0,0,1,2.827-1.59c3.357,0,7.95,6.714,10.424,6.007,3.18-.707-13.074-23.144-5.477-27.561,3.533-2.12,10.6,6.89,8.3-2.827-2.12-9.01,6.36-4.947,11.66-7.244,4.593-1.943,7.95-7.244,2.3-10.424a18.885,18.885,0,0,1-3.887-3.357,52.438,52.438,0,0,1,27.031-7.774ZM111.48,36.924a58.43,58.43,0,0,1,7.774,12.72v.53c-.707,1.237-1.943,1.943-3.887,3.887-4.947,4.947-5.653-3.71-7.774-5.477-2.3-2.12-10.6.353-11.66-2.3-1.237-3.18,8.834-7.42,15.547-9.364" fill="#f8f8f8"/></g></g></g></svg>